solid top plate lemon rx grillage
facet normal -0.0 -0.0 1.0
  outer loop
    vertex 55.056431196476346 46.82314509193383 0.6999999999999774
    vertex 55.806431196476346 47.573145091933824 0.6999999999999774
    vertex 55.056431196476346 65.82314509193382 0.6999999999999774
  endloop
endfacet
facet normal -0.0 -0.0 1.0
  outer loop
    vertex 55.806431196476346 47.573145091933824 0.6999999999999774
    vertex 55.056431196476346 46.82314509193383 0.6999999999999774
    vertex 74.85643119647635 46.823145091933824 0.6999999999999774
  endloop
endfacet
facet normal -0.0 -0.0 1.0
  outer loop
    vertex 55.806431196476346 47.573145091933824 0.6999999999999774
    vertex 74.85643119647635 46.823145091933824 0.6999999999999774
    vertex 57.97678055234757 47.573145091933824 0.6999999999999774
  endloop
endfacet
facet normal -0.0 -0.0 1.0
  outer loop
    vertex 57.97678055234757 47.573145091933824 0.6999999999999774
    vertex 74.85643119647635 46.823145091933824 0.6999999999999774
    vertex 64.7015839877011 47.573145091933824 0.6999999999999774
  endloop
endfacet
facet normal -0.0 -0.0 1.0
  outer loop
    vertex 64.7015839877011 47.573145091933824 0.6999999999999774
    vertex 74.85643119647635 46.823145091933824 0.6999999999999774
    vertex 65.21127840525162 47.573145091933824 0.6999999999999774
  endloop
endfacet
facet normal -0.0 -0.0 1.0
  outer loop
    vertex 65.21127840525162 47.573145091933824 0.6999999999999774
    vertex 74.85643119647635 46.823145091933824 0.6999999999999774
    vertex 71.93608184060514 47.573145091933824 0.6999999999999775
  endloop
endfacet
facet normal -0.0 -0.0 1.0
  outer loop
    vertex 71.93608184060514 47.573145091933824 0.6999999999999775
    vertex 74.85643119647635 46.823145091933824 0.6999999999999774
    vertex 74.10643119647636 49.648615787439084 0.6999999999999769
  endloop
endfacet
facet normal -0.0 -0.0 1.0
  outer loop
    vertex 74.10643119647636 49.648615787439084 0.6999999999999769
    vertex 74.85643119647635 46.823145091933824 0.6999999999999774
    vertex 74.10643119647636 56.079438744744365 0.6999999999999772
  endloop
endfacet
facet normal -0.0 -0.0 1.0
  outer loop
    vertex 74.10643119647636 56.079438744744365 0.6999999999999772
    vertex 74.85643119647635 46.823145091933824 0.6999999999999774
    vertex 74.10643119647636 56.56685143912328 0.6999999999999772
  endloop
endfacet
facet normal -0.0 -0.0 1.0
  outer loop
    vertex 74.10643119647636 56.56685143912328 0.6999999999999772
    vertex 74.85643119647635 46.823145091933824 0.6999999999999774
    vertex 74.10643119647636 62.997674396428565 0.6999999999999772
  endloop
endfacet
facet normal -0.0 -0.0 1.0
  outer loop
    vertex 55.056431196476346 65.82314509193382 0.6999999999999774
    vertex 55.806431196476346 65.07314509193382 0.6999999999999774
    vertex 74.85643119647635 65.82314509193382 0.6999999999999774
  endloop
endfacet
facet normal -0.0 -0.0 1.0
  outer loop
    vertex 55.806431196476346 65.07314509193382 0.6999999999999774
    vertex 55.056431196476346 65.82314509193382 0.6999999999999774
    vertex 55.806431196476346 47.573145091933824 0.6999999999999774
  endloop
endfacet
facet normal -0.0 -0.0 1.0
  outer loop
    vertex 55.806431196476346 65.07314509193382 0.6999999999999774
    vertex 55.806431196476346 47.573145091933824 0.6999999999999774
    vertex 55.806431196476346 49.648615787439084 0.6999999999999775
  endloop
endfacet
facet normal -0.0 -0.0 1.0
  outer loop
    vertex 55.806431196476346 65.07314509193382 0.6999999999999774
    vertex 55.806431196476346 49.648615787439084 0.6999999999999775
    vertex 55.806431196476346 56.07943874474439 0.6999999999999775
  endloop
endfacet
facet normal -0.0 -0.0 1.0
  outer loop
    vertex 55.806431196476346 65.07314509193382 0.6999999999999774
    vertex 55.806431196476346 56.07943874474439 0.6999999999999775
    vertex 55.806431196476346 56.5668514391233 0.6999999999999783
  endloop
endfacet
facet normal -0.0 -0.0 1.0
  outer loop
    vertex 55.806431196476346 65.07314509193382 0.6999999999999774
    vertex 55.806431196476346 56.5668514391233 0.6999999999999783
    vertex 55.806431196476346 62.997674396428565 0.6999999999999781
  endloop
endfacet
facet normal -0.0 -0.0 1.0
  outer loop
    vertex 55.806431196476346 65.07314509193382 0.6999999999999774
    vertex 55.806431196476346 62.997674396428565 0.6999999999999781
    vertex 55.806431196476346 63.48508709080751 0.6999999999999781
  endloop
endfacet
facet normal -0.0 -0.0 1.0
  outer loop
    vertex 74.85643119647635 65.82314509193382 0.6999999999999774
    vertex 55.806431196476346 65.07314509193382 0.6999999999999774
    vertex 57.46708613479701 65.07314509193382 0.6999999999999781
  endloop
endfacet
facet normal -0.0 -0.0 1.0
  outer loop
    vertex 74.85643119647635 65.82314509193382 0.6999999999999774
    vertex 57.46708613479701 65.07314509193382 0.6999999999999781
    vertex 57.97678055234757 65.07314509193382 0.6999999999999774
  endloop
endfacet
facet normal -0.0 -0.0 1.0
  outer loop
    vertex 74.85643119647635 65.82314509193382 0.6999999999999774
    vertex 57.97678055234757 65.07314509193382 0.6999999999999774
    vertex 64.70158398770107 65.07314509193381 0.6999999999999796
  endloop
endfacet
facet normal -0.0 -0.0 1.0
  outer loop
    vertex 74.85643119647635 65.82314509193382 0.6999999999999774
    vertex 64.70158398770107 65.07314509193381 0.6999999999999796
    vertex 65.21127840525163 65.07314509193381 0.699999999999979
  endloop
endfacet
facet normal -0.0 -0.0 1.0
  outer loop
    vertex 74.85643119647635 65.82314509193382 0.6999999999999774
    vertex 65.21127840525163 65.07314509193381 0.699999999999979
    vertex 71.93608184060514 65.07314509193382 0.699999999999978
  endloop
endfacet
facet normal -0.0 -0.0 1.0
  outer loop
    vertex 74.85643119647635 65.82314509193382 0.6999999999999774
    vertex 71.93608184060514 65.07314509193382 0.699999999999978
    vertex 74.10643119647636 62.997674396428565 0.6999999999999772
  endloop
endfacet
facet normal -0.0 -0.0 1.0
  outer loop
    vertex 74.85643119647635 65.82314509193382 0.6999999999999774
    vertex 74.10643119647636 62.997674396428565 0.6999999999999772
    vertex 74.85643119647635 46.823145091933824 0.6999999999999774
  endloop
endfacet
facet normal -2.711506233219131e-16 -0.9999999999999999 -0.0
  outer loop
    vertex 74.85643119647635 46.823145091933824 0.6999999999999774
    vertex 55.056431196476346 46.82314509193383 0.19999999999997747
    vertex 74.85643119647635 46.823145091933824 0.19999999999997747
  endloop
endfacet
facet normal -2.711506233219131e-16 -0.9999999999999999 -0.0
  outer loop
    vertex 55.056431196476346 46.82314509193383 0.19999999999997747
    vertex 74.85643119647635 46.823145091933824 0.6999999999999774
    vertex 55.056431196476346 46.82314509193383 0.6999999999999774
  endloop
endfacet
facet normal -1.0 0.0 0.0
  outer loop
    vertex 55.056431196476346 65.82314509193382 0.6999999999999774
    vertex 55.056431196476346 46.82314509193383 0.19999999999997747
    vertex 55.056431196476346 46.82314509193383 0.6999999999999774
  endloop
endfacet
facet normal -1.0 0.0 0.0
  outer loop
    vertex 55.056431196476346 46.82314509193383 0.19999999999997747
    vertex 55.056431196476346 65.82314509193382 0.6999999999999774
    vertex 55.056431196476346 65.82314509193382 0.19999999999997747
  endloop
endfacet
facet normal -0.0 0.9999999999999999 0.0
  outer loop
    vertex 55.056431196476346 65.82314509193382 0.6999999999999774
    vertex 74.85643119647635 65.82314509193382 0.19999999999997747
    vertex 55.056431196476346 65.82314509193382 0.19999999999997747
  endloop
endfacet
facet normal -0.0 0.9999999999999999 0.0
  outer loop
    vertex 74.85643119647635 65.82314509193382 0.19999999999997747
    vertex 55.056431196476346 65.82314509193382 0.6999999999999774
    vertex 74.85643119647635 65.82314509193382 0.6999999999999774
  endloop
endfacet
facet normal 1.0 0.0 0.0
  outer loop
    vertex 74.85643119647635 65.82314509193382 0.19999999999997747
    vertex 74.85643119647635 46.823145091933824 0.6999999999999774
    vertex 74.85643119647635 46.823145091933824 0.19999999999997747
  endloop
endfacet
facet normal 1.0 0.0 0.0
  outer loop
    vertex 74.85643119647635 46.823145091933824 0.6999999999999774
    vertex 74.85643119647635 65.82314509193382 0.19999999999997747
    vertex 74.85643119647635 65.82314509193382 0.6999999999999774
  endloop
endfacet
facet normal 1.299314543494734e-15 1.0 -4.0285235464969965e-15
  outer loop
    vertex 55.806431196476346 47.573145091933824 0.6999999999999774
    vertex 57.97678055234757 47.57314509193382 0.1999999999999831
    vertex 55.806431196476346 47.573145091933824 0.19999999999997747
  endloop
endfacet
facet normal 1.299314543494734e-15 1.0 -4.0285235464969965e-15
  outer loop
    vertex 57.97678055234757 47.57314509193382 0.1999999999999831
    vertex 55.806431196476346 47.573145091933824 0.6999999999999774
    vertex 57.97678055234757 47.573145091933824 0.6999999999999774
  endloop
endfacet
facet normal 1.0 -0.0 -0.0
  outer loop
    vertex 55.806431196476346 65.07314509193382 0.19999999999997747
    vertex 55.806431196476346 63.48508709080751 0.6999999999999781
    vertex 55.806431196476346 63.48508709080751 0.19999999999998028
  endloop
endfacet
facet normal 1.0 -0.0 -0.0
  outer loop
    vertex 55.806431196476346 63.48508709080751 0.6999999999999781
    vertex 55.806431196476346 65.07314509193382 0.19999999999997747
    vertex 55.806431196476346 65.07314509193382 0.6999999999999774
  endloop
endfacet
facet normal 2.4239609251492168e-17 -3.3607284161665615e-18 1.0
  outer loop
    vertex 57.72193334357242 58.3986157874392 1.6999999999999764
    vertex 55.806431196476346 62.997674396428565 1.6999999999999764
    vertex 55.806431196476346 56.5668514391233 1.6999999999999764
  endloop
endfacet
facet normal 2.4239609251492168e-17 -3.3607284161665615e-18 1.0
  outer loop
    vertex 55.806431196476346 62.997674396428565 1.6999999999999764
    vertex 57.72193334357242 58.3986157874392 1.6999999999999764
    vertex 57.72193334357228 61.16591004811278 1.6999999999999764
  endloop
endfacet
facet normal 2.4239609251492168e-17 -3.3607284161665615e-18 1.0
  outer loop
    vertex 57.72193334357228 61.16591004811278 1.6999999999999764
    vertex 57.72193334357242 58.3986157874392 1.6999999999999764
    vertex 59.892282699443506 63.24138074361804 1.6999999999999764
  endloop
endfacet
facet normal 2.4239609251492168e-17 -3.3607284161665615e-18 1.0
  outer loop
    vertex 59.892282699443506 63.24138074361804 1.6999999999999764
    vertex 57.72193334357242 58.3986157874392 1.6999999999999764
    vertex 59.16883291415311 59.782262917775924 1.6999999999999764
  endloop
endfacet
facet normal 2.4239609251492168e-17 -3.3607284161665615e-18 1.0
  outer loop
    vertex 59.892282699443506 63.24138074361804 1.6999999999999764
    vertex 59.16883291415311 59.782262917775924 1.6999999999999764
    vertex 61.33918227002432 61.8577336132812 1.6999999999999762
  endloop
endfacet
facet normal 2.4239609251492168e-17 -3.3607284161665615e-18 1.0
  outer loop
    vertex 59.89228269944362 56.32314509193391 1.6999999999999764
    vertex 59.16883291415311 59.782262917775924 1.6999999999999764
    vertex 57.72193334357242 58.3986157874392 1.6999999999999764
  endloop
endfacet
facet normal 2.4239609251492168e-17 -3.3607284161665615e-18 1.0
  outer loop
    vertex 59.16883291415311 59.782262917775924 1.6999999999999764
    vertex 59.89228269944362 56.32314509193391 1.6999999999999764
    vertex 61.33918227002433 57.70679222227066 1.6999999999999764
  endloop
endfacet
facet normal 2.4239609251492168e-17 -3.3607284161665615e-18 1.0
  outer loop
    vertex 57.7219333435723 51.4803801357549 1.6999999999999764
    vertex 55.806431196476346 56.07943874474439 1.6999999999999758
    vertex 55.806431196476346 49.648615787439084 1.6999999999999764
  endloop
endfacet
facet normal 2.4239609251492168e-17 -3.3607284161665615e-18 1.0
  outer loop
    vertex 55.806431196476346 56.07943874474439 1.6999999999999758
    vertex 57.7219333435723 51.4803801357549 1.6999999999999764
    vertex 57.7219333435723 54.24767439642857 1.6999999999999762
  endloop
endfacet
facet normal 2.4239609251492168e-17 -3.3607284161665615e-18 1.0
  outer loop
    vertex 57.7219333435723 54.24767439642857 1.6999999999999762
    vertex 57.7219333435723 51.4803801357549 1.6999999999999764
    vertex 59.89228269944352 49.40490944024962 1.6999999999999762
  endloop
endfacet
facet normal 2.4239609251492168e-17 -3.3607284161665615e-18 1.0
  outer loop
    vertex 57.7219333435723 54.24767439642857 1.6999999999999762
    vertex 59.89228269944352 49.40490944024962 1.6999999999999762
    vertex 59.16883291415312 52.86402726609173 1.6999999999999764
  endloop
endfacet
facet normal 2.4239609251492168e-17 -3.3607284161665615e-18 1.0
  outer loop
    vertex 59.16883291415312 52.86402726609173 1.6999999999999764
    vertex 59.89228269944352 49.40490944024962 1.6999999999999762
    vertex 61.33918227002434 50.788556570586465 1.6999999999999762
  endloop
endfacet
facet normal 2.4239609251492168e-17 -3.3607284161665615e-18 1.0
  outer loop
    vertex 62.78608184060514 49.40490944024963 1.6999999999999764
    vertex 63.50953162589561 52.86402726609178 1.6999999999999762
    vertex 61.33918227002434 50.788556570586465 1.6999999999999762
  endloop
endfacet
facet normal 2.4239609251492168e-17 -3.3607284161665615e-18 1.0
  outer loop
    vertex 63.50953162589561 52.86402726609178 1.6999999999999762
    vertex 62.78608184060514 49.40490944024963 1.6999999999999764
    vertex 64.9564311964764 51.48038013575493 1.6999999999999764
  endloop
endfacet
facet normal 2.4239609251492168e-17 -3.3607284161665615e-18 1.0
  outer loop
    vertex 63.50953162589561 52.86402726609178 1.6999999999999762
    vertex 64.9564311964764 51.48038013575493 1.6999999999999764
    vertex 64.95643119647636 54.247674396428565 1.6999999999999758
  endloop
endfacet
facet normal 2.4239609251492168e-17 -3.3607284161665615e-18 1.0
  outer loop
    vertex 64.95643119647636 54.247674396428565 1.6999999999999758
    vertex 64.9564311964764 51.48038013575493 1.6999999999999764
    vertex 67.12678055234758 56.32314509193382 1.6999999999999758
  endloop
endfacet
facet normal 2.4239609251492168e-17 -3.3607284161665615e-18 1.0
  outer loop
    vertex 67.12678055234758 56.32314509193382 1.6999999999999758
    vertex 64.9564311964764 51.48038013575493 1.6999999999999764
    vertex 66.40333076705717 52.86402726609173 1.6999999999999762
  endloop
endfacet
facet normal 2.4239609251492168e-17 -3.3607284161665615e-18 1.0
  outer loop
    vertex 67.12678055234758 56.32314509193382 1.6999999999999758
    vertex 66.40333076705717 52.86402726609173 1.6999999999999762
    vertex 68.57368012292838 54.93949796159699 1.6999999999999758
  endloop
endfacet
facet normal 2.4239609251492168e-17 -3.3607284161665615e-18 1.0
  outer loop
    vertex 66.40333076705717 59.78226291777594 1.6999999999999758
    vertex 67.12678055234758 63.24138074361802 1.6999999999999762
    vertex 64.95643119647636 61.165910048112764 1.6999999999999758
  endloop
endfacet
facet normal 2.4239609251492168e-17 -3.3607284161665615e-18 1.0
  outer loop
    vertex 67.12678055234758 63.24138074361802 1.6999999999999762
    vertex 66.40333076705717 59.78226291777594 1.6999999999999758
    vertex 68.57368012292838 61.8577336132812 1.6999999999999762
  endloop
endfacet
facet normal 2.4239609251492168e-17 -3.3607284161665615e-18 1.0
  outer loop
    vertex 67.1267805523476 49.40490944024965 1.6999999999999764
    vertex 66.40333076705717 52.86402726609173 1.6999999999999762
    vertex 64.9564311964764 51.48038013575493 1.6999999999999764
  endloop
endfacet
facet normal 2.4239609251492168e-17 -3.3607284161665615e-18 1.0
  outer loop
    vertex 66.40333076705717 52.86402726609173 1.6999999999999762
    vertex 67.1267805523476 49.40490944024965 1.6999999999999764
    vertex 68.5736801229284 50.788556570586465 1.6999999999999764
  endloop
endfacet
facet normal 2.4239609251492168e-17 -3.3607284161665615e-18 1.0
  outer loop
    vertex 64.7015839877011 47.573145091933824 1.6999999999999764
    vertex 59.89228269944352 49.40490944024962 1.6999999999999762
    vertex 57.97678055234757 47.573145091933824 1.6999999999999758
  endloop
endfacet
facet normal 2.4239609251492168e-17 -3.3607284161665615e-18 1.0
  outer loop
    vertex 59.89228269944352 49.40490944024962 1.6999999999999762
    vertex 64.7015839877011 47.573145091933824 1.6999999999999764
    vertex 62.78608184060514 49.40490944024963 1.6999999999999764
  endloop
endfacet
facet normal 2.4239609251492168e-17 -3.3607284161665615e-18 1.0
  outer loop
    vertex 59.89228269944352 49.40490944024962 1.6999999999999762
    vertex 62.78608184060514 49.40490944024963 1.6999999999999764
    vertex 61.33918227002434 50.788556570586465 1.6999999999999762
  endloop
endfacet
facet normal 2.4239609251492168e-17 -3.3607284161665615e-18 1.0
  outer loop
    vertex 71.93608184060514 47.573145091933824 1.6999999999999762
    vertex 67.1267805523476 49.40490944024965 1.6999999999999764
    vertex 65.21127840525162 47.573145091933824 1.6999999999999764
  endloop
endfacet
facet normal 2.4239609251492168e-17 -3.3607284161665615e-18 1.0
  outer loop
    vertex 67.1267805523476 49.40490944024965 1.6999999999999764
    vertex 71.93608184060514 47.573145091933824 1.6999999999999762
    vertex 70.0205796935092 49.40490944024962 1.6999999999999758
  endloop
endfacet
facet normal 2.4239609251492168e-17 -3.3607284161665615e-18 1.0
  outer loop
    vertex 67.1267805523476 49.40490944024965 1.6999999999999764
    vertex 70.0205796935092 49.40490944024962 1.6999999999999758
    vertex 68.5736801229284 50.788556570586465 1.6999999999999764
  endloop
endfacet
facet normal 2.4239609251492168e-17 -3.3607284161665615e-18 1.0
  outer loop
    vertex 70.0205796935092 49.40490944024962 1.6999999999999758
    vertex 70.7440294787996 52.864027266091725 1.6999999999999758
    vertex 68.5736801229284 50.788556570586465 1.6999999999999764
  endloop
endfacet
facet normal 2.4239609251492168e-17 -3.3607284161665615e-18 1.0
  outer loop
    vertex 70.7440294787996 52.864027266091725 1.6999999999999758
    vertex 70.0205796935092 49.40490944024962 1.6999999999999758
    vertex 72.19092904938041 51.48038013575487 1.699999999999975
  endloop
endfacet
facet normal 2.4239609251492168e-17 -3.3607284161665615e-18 1.0
  outer loop
    vertex 63.509531625895555 59.782262917775924 1.6999999999999758
    vertex 62.78608184060514 63.24138074361804 1.6999999999999762
    vertex 61.33918227002432 61.8577336132812 1.6999999999999762
  endloop
endfacet
facet normal 2.4239609251492168e-17 -3.3607284161665615e-18 1.0
  outer loop
    vertex 62.78608184060514 63.24138074361804 1.6999999999999762
    vertex 63.509531625895555 59.782262917775924 1.6999999999999758
    vertex 64.95643119647636 61.165910048112764 1.6999999999999758
  endloop
endfacet
facet normal 2.4239609251492168e-17 -3.3607284161665615e-18 1.0
  outer loop
    vertex 64.95643119647636 61.165910048112764 1.6999999999999758
    vertex 63.509531625895555 59.782262917775924 1.6999999999999758
    vertex 64.95643119647636 58.39861578743909 1.6999999999999758
  endloop
endfacet
facet normal 2.4239609251492168e-17 -3.3607284161665615e-18 1.0
  outer loop
    vertex 64.95643119647636 61.165910048112764 1.6999999999999758
    vertex 64.95643119647636 58.39861578743909 1.6999999999999758
    vertex 67.12678055234758 56.32314509193382 1.6999999999999758
  endloop
endfacet
facet normal 2.4239609251492168e-17 -3.3607284161665615e-18 1.0
  outer loop
    vertex 64.95643119647636 61.165910048112764 1.6999999999999758
    vertex 67.12678055234758 56.32314509193382 1.6999999999999758
    vertex 66.40333076705717 59.78226291777594 1.6999999999999758
  endloop
endfacet
facet normal 2.4239609251492168e-17 -3.3607284161665615e-18 1.0
  outer loop
    vertex 66.40333076705717 59.78226291777594 1.6999999999999758
    vertex 67.12678055234758 56.32314509193382 1.6999999999999758
    vertex 68.5736801229284 57.70679222227067 1.6999999999999758
  endloop
endfacet
facet normal 2.4239609251492168e-17 -3.3607284161665615e-18 1.0
  outer loop
    vertex 68.5736801229284 57.70679222227067 1.6999999999999758
    vertex 67.12678055234758 56.32314509193382 1.6999999999999758
    vertex 68.57368012292838 54.93949796159699 1.6999999999999758
  endloop
endfacet
facet normal 2.4239609251492168e-17 -3.3607284161665615e-18 1.0
  outer loop
    vertex 68.5736801229284 57.70679222227067 1.6999999999999758
    vertex 68.57368012292838 54.93949796159699 1.6999999999999758
    vertex 70.7440294787996 52.864027266091725 1.6999999999999758
  endloop
endfacet
facet normal 2.4239609251492168e-17 -3.3607284161665615e-18 1.0
  outer loop
    vertex 68.5736801229284 57.70679222227067 1.6999999999999758
    vertex 70.7440294787996 52.864027266091725 1.6999999999999758
    vertex 70.02057969350919 56.32314509193383 1.6999999999999758
  endloop
endfacet
facet normal 2.4239609251492168e-17 -3.3607284161665615e-18 1.0
  outer loop
    vertex 70.02057969350919 56.32314509193383 1.6999999999999758
    vertex 70.7440294787996 52.864027266091725 1.6999999999999758
    vertex 72.19092904938041 54.247674396428565 1.6999999999999758
  endloop
endfacet
facet normal 2.4239609251492168e-17 -3.3607284161665615e-18 1.0
  outer loop
    vertex 72.19092904938041 54.247674396428565 1.6999999999999758
    vertex 70.7440294787996 52.864027266091725 1.6999999999999758
    vertex 72.19092904938041 51.48038013575487 1.699999999999975
  endloop
endfacet
facet normal 2.4239609251492168e-17 -3.3607284161665615e-18 1.0
  outer loop
    vertex 72.19092904938041 54.247674396428565 1.6999999999999758
    vertex 72.19092904938041 51.48038013575487 1.699999999999975
    vertex 74.10643119647636 49.648615787439084 1.699999999999975
  endloop
endfacet
facet normal 2.4239609251492168e-17 -3.3607284161665615e-18 1.0
  outer loop
    vertex 72.19092904938041 54.247674396428565 1.6999999999999758
    vertex 74.10643119647636 49.648615787439084 1.699999999999975
    vertex 74.10643119647636 56.079438744744365 1.6999999999999764
  endloop
endfacet
facet normal 2.4239609251492168e-17 -3.3607284161665615e-18 1.0
  outer loop
    vertex 70.02057969350919 56.32314509193383 1.6999999999999758
    vertex 70.7440294787996 59.782262917775924 1.6999999999999758
    vertex 68.5736801229284 57.70679222227067 1.6999999999999758
  endloop
endfacet
facet normal 2.4239609251492168e-17 -3.3607284161665615e-18 1.0
  outer loop
    vertex 70.7440294787996 59.782262917775924 1.6999999999999758
    vertex 70.02057969350919 56.32314509193383 1.6999999999999758
    vertex 72.1909290493804 58.39861578743909 1.6999999999999762
  endloop
endfacet
facet normal 2.4239609251492168e-17 -3.3607284161665615e-18 1.0
  outer loop
    vertex 70.7440294787996 59.782262917775924 1.6999999999999758
    vertex 70.0205796935092 63.241380743618045 1.6999999999999762
    vertex 68.57368012292838 61.8577336132812 1.6999999999999762
  endloop
endfacet
facet normal 2.4239609251492168e-17 -3.3607284161665615e-18 1.0
  outer loop
    vertex 70.0205796935092 63.241380743618045 1.6999999999999762
    vertex 70.7440294787996 59.782262917775924 1.6999999999999758
    vertex 72.19092904938041 61.16591004811278 1.6999999999999758
  endloop
endfacet
facet normal 2.4239609251492168e-17 -3.3607284161665615e-18 1.0
  outer loop
    vertex 72.19092904938041 61.16591004811278 1.6999999999999758
    vertex 70.7440294787996 59.782262917775924 1.6999999999999758
    vertex 72.1909290493804 58.39861578743909 1.6999999999999762
  endloop
endfacet
facet normal 2.4239609251492168e-17 -3.3607284161665615e-18 1.0
  outer loop
    vertex 72.19092904938041 61.16591004811278 1.6999999999999758
    vertex 72.1909290493804 58.39861578743909 1.6999999999999762
    vertex 74.10643119647636 56.56685143912328 1.6999999999999762
  endloop
endfacet
facet normal 2.4239609251492168e-17 -3.3607284161665615e-18 1.0
  outer loop
    vertex 72.19092904938041 61.16591004811278 1.6999999999999758
    vertex 74.10643119647636 56.56685143912328 1.6999999999999762
    vertex 74.10643119647636 62.997674396428565 1.6999999999999758
  endloop
endfacet
facet normal 2.4239609251492168e-17 -3.3607284161665615e-18 1.0
  outer loop
    vertex 67.12678055234758 63.24138074361802 1.6999999999999762
    vertex 71.93608184060514 65.07314509193382 1.6999999999999764
    vertex 65.21127840525163 65.07314509193381 1.6999999999999762
  endloop
endfacet
facet normal 2.4239609251492168e-17 -3.3607284161665615e-18 1.0
  outer loop
    vertex 71.93608184060514 65.07314509193382 1.6999999999999764
    vertex 67.12678055234758 63.24138074361802 1.6999999999999762
    vertex 70.0205796935092 63.241380743618045 1.6999999999999762
  endloop
endfacet
facet normal 2.4239609251492168e-17 -3.3607284161665615e-18 1.0
  outer loop
    vertex 70.0205796935092 63.241380743618045 1.6999999999999762
    vertex 67.12678055234758 63.24138074361802 1.6999999999999762
    vertex 68.57368012292838 61.8577336132812 1.6999999999999762
  endloop
endfacet
facet normal 2.4239609251492168e-17 -3.3607284161665615e-18 1.0
  outer loop
    vertex 59.16883291415312 52.86402726609173 1.6999999999999764
    vertex 59.89228269944362 56.32314509193391 1.6999999999999764
    vertex 57.7219333435723 54.24767439642857 1.6999999999999762
  endloop
endfacet
facet normal 2.4239609251492168e-17 -3.3607284161665615e-18 1.0
  outer loop
    vertex 59.89228269944362 56.32314509193391 1.6999999999999764
    vertex 59.16883291415312 52.86402726609173 1.6999999999999764
    vertex 61.33918227002441 54.93949796159707 1.6999999999999764
  endloop
endfacet
facet normal 2.4239609251492168e-17 -3.3607284161665615e-18 1.0
  outer loop
    vertex 59.89228269944362 56.32314509193391 1.6999999999999764
    vertex 61.33918227002441 54.93949796159707 1.6999999999999764
    vertex 61.33918227002433 57.70679222227066 1.6999999999999764
  endloop
endfacet
facet normal 2.4239609251492168e-17 -3.3607284161665615e-18 1.0
  outer loop
    vertex 61.33918227002433 57.70679222227066 1.6999999999999764
    vertex 61.33918227002441 54.93949796159707 1.6999999999999764
    vertex 63.509531625895555 59.782262917775924 1.6999999999999758
  endloop
endfacet
facet normal 2.4239609251492168e-17 -3.3607284161665615e-18 1.0
  outer loop
    vertex 63.509531625895555 59.782262917775924 1.6999999999999758
    vertex 61.33918227002441 54.93949796159707 1.6999999999999764
    vertex 62.78608184060514 56.32314509193383 1.6999999999999764
  endloop
endfacet
facet normal 2.4239609251492168e-17 -3.3607284161665615e-18 1.0
  outer loop
    vertex 63.509531625895555 59.782262917775924 1.6999999999999758
    vertex 62.78608184060514 56.32314509193383 1.6999999999999764
    vertex 64.95643119647636 58.39861578743909 1.6999999999999758
  endloop
endfacet
facet normal 2.4239609251492168e-17 -3.3607284161665615e-18 1.0
  outer loop
    vertex 63.50953162589561 52.86402726609178 1.6999999999999762
    vertex 62.78608184060514 56.32314509193383 1.6999999999999764
    vertex 61.33918227002441 54.93949796159707 1.6999999999999764
  endloop
endfacet
facet normal 2.4239609251492168e-17 -3.3607284161665615e-18 1.0
  outer loop
    vertex 62.78608184060514 56.32314509193383 1.6999999999999764
    vertex 63.50953162589561 52.86402726609178 1.6999999999999762
    vertex 64.95643119647636 54.247674396428565 1.6999999999999758
  endloop
endfacet
facet normal 2.4239609251492168e-17 -3.3607284161665615e-18 1.0
  outer loop
    vertex 59.892282699443506 63.24138074361804 1.6999999999999764
    vertex 64.70158398770107 65.07314509193381 1.6999999999999764
    vertex 57.97678055234757 65.07314509193382 1.6999999999999758
  endloop
endfacet
facet normal 2.4239609251492168e-17 -3.3607284161665615e-18 1.0
  outer loop
    vertex 64.70158398770107 65.07314509193381 1.6999999999999764
    vertex 59.892282699443506 63.24138074361804 1.6999999999999764
    vertex 61.33918227002432 61.8577336132812 1.6999999999999762
  endloop
endfacet
facet normal 2.4239609251492168e-17 -3.3607284161665615e-18 1.0
  outer loop
    vertex 64.70158398770107 65.07314509193381 1.6999999999999764
    vertex 61.33918227002432 61.8577336132812 1.6999999999999762
    vertex 62.78608184060514 63.24138074361804 1.6999999999999762
  endloop
endfacet
facet normal -0.6911329717228286 0.7227276218587274 -1.992127608329629e-17
  outer loop
    vertex 72.19092904938041 61.16591004811278 1.6999999999999758
    vertex 74.10643119647636 62.997674396428565 0.19999999999997367
    vertex 72.19092904938041 61.16591004811278 0.19999999999997367
  endloop
endfacet
facet normal -0.6911329717228286 0.7227276218587274 -1.992127608329629e-17
  outer loop
    vertex 74.10643119647636 62.997674396428565 0.19999999999997367
    vertex 72.19092904938041 61.16591004811278 1.6999999999999758
    vertex 74.10643119647636 62.997674396428565 0.6999999999999772
  endloop
endfacet
facet normal -0.6911329717228286 0.7227276218587274 -1.992127608329629e-17
  outer loop
    vertex 74.10643119647636 62.997674396428565 0.6999999999999772
    vertex 72.19092904938041 61.16591004811278 1.6999999999999758
    vertex 74.10643119647636 62.997674396428565 1.6999999999999758
  endloop
endfacet
facet normal -0.6911329717228277 0.7227276218587283 -0.0
  outer loop
    vertex 68.5736801229284 57.70679222227067 1.6999999999999758
    vertex 70.7440294787996 59.782262917775924 0.19999999999997323
    vertex 68.5736801229284 57.70679222227067 0.19999999999997323
  endloop
endfacet
facet normal -0.6911329717228277 0.7227276218587283 -0.0
  outer loop
    vertex 70.7440294787996 59.782262917775924 0.19999999999997323
    vertex 68.5736801229284 57.70679222227067 1.6999999999999758
    vertex 70.7440294787996 59.782262917775924 1.6999999999999758
  endloop
endfacet
facet normal -0.6911329717228278 -0.7227276218587282 -1.3573497635038974e-17
  outer loop
    vertex 70.7440294787996 59.782262917775924 1.6999999999999758
    vertex 68.57368012292838 61.8577336132812 0.19999999999997464
    vertex 70.7440294787996 59.782262917775924 0.19999999999997323
  endloop
endfacet
facet normal -0.6911329717228278 -0.7227276218587282 -1.3573497635038974e-17
  outer loop
    vertex 68.57368012292838 61.8577336132812 0.19999999999997464
    vertex 70.7440294787996 59.782262917775924 1.6999999999999758
    vertex 68.57368012292838 61.8577336132812 1.6999999999999762
  endloop
endfacet
facet normal 0.6911329717228277 -0.7227276218587283 -1.357349763503885e-17
  outer loop
    vertex 68.57368012292838 61.8577336132812 0.19999999999997464
    vertex 66.40333076705717 59.78226291777594 1.6999999999999758
    vertex 66.40333076705717 59.78226291777594 0.19999999999997323
  endloop
endfacet
facet normal 0.6911329717228277 -0.7227276218587283 -1.357349763503885e-17
  outer loop
    vertex 66.40333076705717 59.78226291777594 1.6999999999999758
    vertex 68.57368012292838 61.8577336132812 0.19999999999997464
    vertex 68.57368012292838 61.8577336132812 1.6999999999999762
  endloop
endfacet
facet normal 0.6911329717228278 0.7227276218587282 -0.0
  outer loop
    vertex 66.40333076705717 59.78226291777594 1.6999999999999758
    vertex 68.5736801229284 57.70679222227067 0.19999999999997323
    vertex 66.40333076705717 59.78226291777594 0.19999999999997323
  endloop
endfacet
facet normal 0.6911329717228278 0.7227276218587282 -0.0
  outer loop
    vertex 68.5736801229284 57.70679222227067 0.19999999999997323
    vertex 66.40333076705717 59.78226291777594 1.6999999999999758
    vertex 68.5736801229284 57.70679222227067 1.6999999999999758
  endloop
endfacet
facet normal -0.6911329717228287 0.7227276218587273 5.478350922906447e-17
  outer loop
    vertex 72.19092904938041 54.247674396428565 1.6999999999999758
    vertex 74.10643119647636 56.079438744744365 0.19999999999997967
    vertex 72.19092904938041 54.247674396428565 0.19999999999997897
  endloop
endfacet
facet normal -0.6911329717228287 0.7227276218587273 5.478350922906447e-17
  outer loop
    vertex 74.10643119647636 56.079438744744365 0.19999999999997967
    vertex 72.19092904938041 54.247674396428565 1.6999999999999758
    vertex 74.10643119647636 56.079438744744365 0.6999999999999772
  endloop
endfacet
facet normal -0.6911329717228287 0.7227276218587273 5.478350922906447e-17
  outer loop
    vertex 74.10643119647636 56.079438744744365 0.6999999999999772
    vertex 72.19092904938041 54.247674396428565 1.6999999999999758
    vertex 74.10643119647636 56.079438744744365 1.6999999999999764
  endloop
endfacet
facet normal -0.6911329717228278 0.7227276218587283 -2.5808763108877213e-17
  outer loop
    vertex 68.5736801229284 50.788556570586465 1.6999999999999764
    vertex 70.7440294787996 52.864027266091725 0.1999999999999676
    vertex 68.5736801229284 50.788556570586465 0.1999999999999676
  endloop
endfacet
facet normal -0.6911329717228278 0.7227276218587283 -2.5808763108877213e-17
  outer loop
    vertex 70.7440294787996 52.864027266091725 0.1999999999999676
    vertex 68.5736801229284 50.788556570586465 1.6999999999999764
    vertex 70.7440294787996 52.864027266091725 1.6999999999999758
  endloop
endfacet
facet normal -0.6911329717228278 -0.7227276218587283 0.0
  outer loop
    vertex 70.7440294787996 52.864027266091725 1.6999999999999758
    vertex 68.57368012292838 54.93949796159699 0.1999999999999676
    vertex 70.7440294787996 52.864027266091725 0.1999999999999676
  endloop
endfacet
facet normal -0.6911329717228278 -0.7227276218587283 0.0
  outer loop
    vertex 68.57368012292838 54.93949796159699 0.1999999999999676
    vertex 70.7440294787996 52.864027266091725 1.6999999999999758
    vertex 68.57368012292838 54.93949796159699 1.6999999999999758
  endloop
endfacet
facet normal 0.6911329717228278 -0.7227276218587283 -4.588224552689733e-18
  outer loop
    vertex 68.57368012292838 54.93949796159699 1.6999999999999758
    vertex 66.40333076705717 52.86402726609173 0.1999999999999676
    vertex 68.57368012292838 54.93949796159699 0.1999999999999676
  endloop
endfacet
facet normal 0.6911329717228278 -0.7227276218587283 -4.588224552689733e-18
  outer loop
    vertex 66.40333076705717 52.86402726609173 0.1999999999999676
    vertex 68.57368012292838 54.93949796159699 1.6999999999999758
    vertex 66.40333076705717 52.86402726609173 1.6999999999999762
  endloop
endfacet
facet normal 0.6911329717228278 0.7227276218587282 -1.7887226177597924e-16
  outer loop
    vertex 66.40333076705717 52.86402726609173 1.6999999999999762
    vertex 68.5736801229284 50.788556570586465 0.1999999999999676
    vertex 66.40333076705717 52.86402726609173 0.1999999999999676
  endloop
endfacet
facet normal 0.6911329717228278 0.7227276218587282 -1.7887226177597924e-16
  outer loop
    vertex 68.5736801229284 50.788556570586465 0.1999999999999676
    vertex 66.40333076705717 52.86402726609173 1.6999999999999762
    vertex 68.5736801229284 50.788556570586465 1.6999999999999764
  endloop
endfacet
facet normal 0.6911329717228271 -0.7227276218587289 -0.0
  outer loop
    vertex 64.9564311964764 51.48038013575493 1.6999999999999764
    vertex 62.78608184060514 49.40490944024963 0.19999999999998028
    vertex 64.9564311964764 51.48038013575493 0.19999999999998028
  endloop
endfacet
facet normal 0.6911329717228271 -0.7227276218587289 -0.0
  outer loop
    vertex 62.78608184060514 49.40490944024963 0.19999999999998028
    vertex 64.9564311964764 51.48038013575493 1.6999999999999764
    vertex 62.78608184060514 49.40490944024963 1.6999999999999764
  endloop
endfacet
facet normal 0.6911329717228278 0.7227276218587284 1.494095706247199e-17
  outer loop
    vertex 62.78608184060514 49.40490944024963 1.6999999999999764
    vertex 64.7015839877011 47.573145091933824 0.19999999999998028
    vertex 62.78608184060514 49.40490944024963 0.19999999999998028
  endloop
endfacet
facet normal 0.6911329717228278 0.7227276218587284 1.494095706247199e-17
  outer loop
    vertex 64.7015839877011 47.573145091933824 0.19999999999998028
    vertex 62.78608184060514 49.40490944024963 1.6999999999999764
    vertex 64.7015839877011 47.573145091933824 0.6999999999999774
  endloop
endfacet
facet normal 0.6911329717228278 0.7227276218587284 1.494095706247199e-17
  outer loop
    vertex 64.7015839877011 47.573145091933824 0.6999999999999774
    vertex 62.78608184060514 49.40490944024963 1.6999999999999764
    vertex 64.7015839877011 47.573145091933824 1.6999999999999764
  endloop
endfacet
facet normal -0.691132971722827 0.7227276218587292 1.9921276083295538e-17
  outer loop
    vertex 65.21127840525162 47.573145091933824 0.6999999999999774
    vertex 67.1267805523476 49.40490944024965 0.19999999999998028
    vertex 65.21127840525162 47.573145091933824 0.19999999999998028
  endloop
endfacet
facet normal -0.691132971722827 0.7227276218587292 1.9921276083295538e-17
  outer loop
    vertex 67.1267805523476 49.40490944024965 0.19999999999998028
    vertex 65.21127840525162 47.573145091933824 0.6999999999999774
    vertex 67.1267805523476 49.40490944024965 1.6999999999999764
  endloop
endfacet
facet normal -0.691132971722827 0.7227276218587292 1.9921276083295538e-17
  outer loop
    vertex 67.1267805523476 49.40490944024965 1.6999999999999764
    vertex 65.21127840525162 47.573145091933824 0.6999999999999774
    vertex 65.21127840525162 47.573145091933824 1.6999999999999764
  endloop
endfacet
facet normal -0.6911329717228335 -0.7227276218587226 -0.0
  outer loop
    vertex 67.1267805523476 49.40490944024965 1.6999999999999764
    vertex 64.9564311964764 51.48038013575493 0.19999999999998028
    vertex 67.1267805523476 49.40490944024965 0.19999999999998028
  endloop
endfacet
facet normal -0.6911329717228335 -0.7227276218587226 -0.0
  outer loop
    vertex 64.9564311964764 51.48038013575493 0.19999999999998028
    vertex 67.1267805523476 49.40490944024965 1.6999999999999764
    vertex 64.9564311964764 51.48038013575493 1.6999999999999764
  endloop
endfacet
facet normal -0.0 1.0 -0.0
  outer loop
    vertex 64.7015839877011 47.573145091933824 0.6999999999999774
    vertex 65.21127840525162 47.573145091933824 0.19999999999998028
    vertex 64.7015839877011 47.573145091933824 0.19999999999998028
  endloop
endfacet
facet normal -0.0 1.0 -0.0
  outer loop
    vertex 65.21127840525162 47.573145091933824 0.19999999999998028
    vertex 64.7015839877011 47.573145091933824 0.6999999999999774
    vertex 65.21127840525162 47.573145091933824 0.6999999999999774
  endloop
endfacet
facet normal 0.6911329717228284 -0.7227276218587276 0.0
  outer loop
    vertex 61.33918227002441 54.93949796159707 1.6999999999999764
    vertex 59.16883291415312 52.86402726609173 0.1999999999999831
    vertex 61.33918227002441 54.93949796159707 0.1999999999999831
  endloop
endfacet
facet normal 0.6911329717228284 -0.7227276218587276 0.0
  outer loop
    vertex 59.16883291415312 52.86402726609173 0.1999999999999831
    vertex 61.33918227002441 54.93949796159707 1.6999999999999764
    vertex 59.16883291415312 52.86402726609173 1.6999999999999764
  endloop
endfacet
facet normal 0.6911329717228278 0.7227276218587282 -3.804402858271538e-17
  outer loop
    vertex 59.16883291415312 52.86402726609173 1.6999999999999764
    vertex 61.33918227002434 50.788556570586465 0.1999999999999831
    vertex 59.16883291415312 52.86402726609173 0.1999999999999831
  endloop
endfacet
facet normal 0.6911329717228278 0.7227276218587282 -3.804402858271538e-17
  outer loop
    vertex 61.33918227002434 50.788556570586465 0.1999999999999831
    vertex 59.16883291415312 52.86402726609173 1.6999999999999764
    vertex 61.33918227002434 50.788556570586465 1.6999999999999762
  endloop
endfacet
facet normal -0.6911329717228283 0.7227276218587279 1.1749860343949544e-16
  outer loop
    vertex 61.33918227002434 50.788556570586465 1.6999999999999762
    vertex 63.50953162589561 52.86402726609178 0.1999999999999831
    vertex 61.33918227002434 50.788556570586465 0.1999999999999831
  endloop
endfacet
facet normal -0.6911329717228283 0.7227276218587279 1.1749860343949544e-16
  outer loop
    vertex 63.50953162589561 52.86402726609178 0.1999999999999831
    vertex 61.33918227002434 50.788556570586465 1.6999999999999762
    vertex 63.50953162589561 52.86402726609178 1.6999999999999762
  endloop
endfacet
facet normal -0.6911329717228356 -0.7227276218587209 -3.0396987661569325e-17
  outer loop
    vertex 63.50953162589561 52.86402726609178 1.6999999999999762
    vertex 61.33918227002441 54.93949796159707 0.1999999999999831
    vertex 63.50953162589561 52.86402726609178 0.1999999999999831
  endloop
endfacet
facet normal -0.6911329717228356 -0.7227276218587209 -3.0396987661569325e-17
  outer loop
    vertex 61.33918227002441 54.93949796159707 0.1999999999999831
    vertex 63.50953162589561 52.86402726609178 1.6999999999999762
    vertex 61.33918227002441 54.93949796159707 1.6999999999999764
  endloop
endfacet
facet normal -0.691132971722826 0.7227276218587301 -0.0
  outer loop
    vertex 64.95643119647636 54.247674396428565 1.6999999999999758
    vertex 67.12678055234758 56.32314509193382 0.19999999999997464
    vertex 64.95643119647636 54.247674396428565 0.19999999999997464
  endloop
endfacet
facet normal -0.691132971722826 0.7227276218587301 -0.0
  outer loop
    vertex 67.12678055234758 56.32314509193382 0.19999999999997464
    vertex 64.95643119647636 54.247674396428565 1.6999999999999758
    vertex 67.12678055234758 56.32314509193382 1.6999999999999758
  endloop
endfacet
facet normal -0.6911329717228278 -0.7227276218587282 0.0
  outer loop
    vertex 67.12678055234758 56.32314509193382 1.6999999999999758
    vertex 64.95643119647636 58.39861578743909 0.19999999999997464
    vertex 67.12678055234758 56.32314509193382 0.19999999999997464
  endloop
endfacet
facet normal -0.6911329717228278 -0.7227276218587282 0.0
  outer loop
    vertex 64.95643119647636 58.39861578743909 0.19999999999997464
    vertex 67.12678055234758 56.32314509193382 1.6999999999999758
    vertex 64.95643119647636 58.39861578743909 1.6999999999999758
  endloop
endfacet
facet normal 0.6911329717228278 -0.7227276218587284 -6.308808759947531e-18
  outer loop
    vertex 64.95643119647636 58.39861578743909 1.6999999999999758
    vertex 62.78608184060514 56.32314509193383 0.19999999999997747
    vertex 64.95643119647636 58.39861578743909 0.19999999999997464
  endloop
endfacet
facet normal 0.6911329717228278 -0.7227276218587284 -6.308808759947531e-18
  outer loop
    vertex 62.78608184060514 56.32314509193383 0.19999999999997747
    vertex 64.95643119647636 58.39861578743909 1.6999999999999758
    vertex 62.78608184060514 56.32314509193383 1.6999999999999764
  endloop
endfacet
facet normal 0.6911329717228297 0.7227276218587264 -6.308808759942594e-18
  outer loop
    vertex 62.78608184060514 56.32314509193383 0.19999999999997747
    vertex 64.95643119647636 54.247674396428565 1.6999999999999758
    vertex 64.95643119647636 54.247674396428565 0.19999999999997464
  endloop
endfacet
facet normal 0.6911329717228297 0.7227276218587264 -6.308808759942594e-18
  outer loop
    vertex 64.95643119647636 54.247674396428565 1.6999999999999758
    vertex 62.78608184060514 56.32314509193383 0.19999999999997747
    vertex 62.78608184060514 56.32314509193383 1.6999999999999764
  endloop
endfacet
facet normal -0.6911329717228277 0.7227276218587283 7.647040921148833e-18
  outer loop
    vertex 61.33918227002433 57.70679222227066 1.6999999999999764
    vertex 63.509531625895555 59.782262917775924 0.19999999999998205
    vertex 61.33918227002433 57.70679222227066 0.19999999999998205
  endloop
endfacet
facet normal -0.6911329717228277 0.7227276218587283 7.647040921148833e-18
  outer loop
    vertex 63.509531625895555 59.782262917775924 0.19999999999998205
    vertex 61.33918227002433 57.70679222227066 1.6999999999999764
    vertex 63.509531625895555 59.782262917775924 1.6999999999999758
  endloop
endfacet
facet normal -0.691132971722826 -0.72272762185873 3.804402858271627e-17
  outer loop
    vertex 63.509531625895555 59.782262917775924 1.6999999999999758
    vertex 61.33918227002432 61.8577336132812 0.19999999999998205
    vertex 63.509531625895555 59.782262917775924 0.19999999999998205
  endloop
endfacet
facet normal -0.691132971722826 -0.72272762185873 3.804402858271627e-17
  outer loop
    vertex 61.33918227002432 61.8577336132812 0.19999999999998205
    vertex 63.509531625895555 59.782262917775924 1.6999999999999758
    vertex 61.33918227002432 61.8577336132812 1.6999999999999762
  endloop
endfacet
facet normal 0.6911329717228297 -0.7227276218587263 -4.58822455268875e-18
  outer loop
    vertex 61.33918227002432 61.8577336132812 1.6999999999999762
    vertex 59.16883291415311 59.782262917775924 0.19999999999998205
    vertex 61.33918227002432 61.8577336132812 0.19999999999998205
  endloop
endfacet
facet normal 0.6911329717228297 -0.7227276218587263 -4.58822455268875e-18
  outer loop
    vertex 59.16883291415311 59.782262917775924 0.19999999999998205
    vertex 61.33918227002432 61.8577336132812 1.6999999999999762
    vertex 59.16883291415311 59.782262917775924 1.6999999999999764
  endloop
endfacet
facet normal 0.6911329717228278 0.7227276218587282 -1.7362354854250846e-16
  outer loop
    vertex 59.16883291415311 59.782262917775924 1.6999999999999764
    vertex 61.33918227002433 57.70679222227066 0.19999999999998205
    vertex 59.16883291415311 59.782262917775924 0.19999999999998205
  endloop
endfacet
facet normal 0.6911329717228278 0.7227276218587282 -1.7362354854250846e-16
  outer loop
    vertex 61.33918227002433 57.70679222227066 0.19999999999998205
    vertex 59.16883291415311 59.782262917775924 1.6999999999999764
    vertex 61.33918227002433 57.70679222227066 1.6999999999999764
  endloop
endfacet
facet normal -0.6911329717228286 -0.7227276218587274 1.9921276083296367e-17
  outer loop
    vertex 67.12678055234758 63.24138074361802 1.6999999999999762
    vertex 65.21127840525163 65.07314509193381 0.1999999999999773
    vertex 67.12678055234758 63.24138074361802 0.1999999999999773
  endloop
endfacet
facet normal -0.6911329717228286 -0.7227276218587274 1.9921276083296367e-17
  outer loop
    vertex 65.21127840525163 65.07314509193381 0.1999999999999773
    vertex 67.12678055234758 63.24138074361802 1.6999999999999762
    vertex 65.21127840525163 65.07314509193381 0.699999999999979
  endloop
endfacet
facet normal -0.6911329717228286 -0.7227276218587274 1.9921276083296367e-17
  outer loop
    vertex 65.21127840525163 65.07314509193381 0.699999999999979
    vertex 67.12678055234758 63.24138074361802 1.6999999999999762
    vertex 65.21127840525163 65.07314509193381 1.6999999999999762
  endloop
endfacet
facet normal 0.6911329717228285 -0.7227276218587274 1.9921276083296607e-17
  outer loop
    vertex 64.70158398770107 65.07314509193381 0.199999999999978
    vertex 62.78608184060514 63.24138074361804 1.6999999999999762
    vertex 62.78608184060514 63.24138074361804 0.1999999999999773
  endloop
endfacet
facet normal 0.6911329717228285 -0.7227276218587274 1.9921276083296607e-17
  outer loop
    vertex 62.78608184060514 63.24138074361804 1.6999999999999762
    vertex 64.70158398770107 65.07314509193381 0.199999999999978
    vertex 64.70158398770107 65.07314509193381 0.6999999999999796
  endloop
endfacet
facet normal 0.6911329717228285 -0.7227276218587274 1.9921276083296607e-17
  outer loop
    vertex 62.78608184060514 63.24138074361804 1.6999999999999762
    vertex 64.70158398770107 65.07314509193381 0.6999999999999796
    vertex 64.70158398770107 65.07314509193381 1.6999999999999764
  endloop
endfacet
facet normal 0.6911329717228287 0.7227276218587274 -2.9881914124944644e-17
  outer loop
    vertex 55.806431196476346 62.997674396428565 0.6999999999999781
    vertex 57.72193334357228 61.16591004811278 0.19999999999998028
    vertex 55.806431196476346 62.997674396428565 0.19999999999998028
  endloop
endfacet
facet normal 0.6911329717228287 0.7227276218587274 -2.9881914124944644e-17
  outer loop
    vertex 57.72193334357228 61.16591004811278 0.19999999999998028
    vertex 55.806431196476346 62.997674396428565 0.6999999999999781
    vertex 57.72193334357228 61.16591004811278 1.6999999999999764
  endloop
endfacet
facet normal 0.6911329717228287 0.7227276218587274 -2.9881914124944644e-17
  outer loop
    vertex 57.72193334357228 61.16591004811278 1.6999999999999764
    vertex 55.806431196476346 62.997674396428565 0.6999999999999781
    vertex 55.806431196476346 62.997674396428565 1.6999999999999764
  endloop
endfacet
facet normal -0.6911329717228287 -0.7227276218587274 0.0
  outer loop
    vertex 59.892282699443506 63.24138074361804 0.19999999999998028
    vertex 57.97678055234757 65.07314509193382 0.6999999999999774
    vertex 57.97678055234757 65.07314509193382 0.19999999999997747
  endloop
endfacet
facet normal -0.6911329717228287 -0.7227276218587274 0.0
  outer loop
    vertex 57.97678055234757 65.07314509193382 0.6999999999999774
    vertex 59.892282699443506 63.24138074361804 0.19999999999998028
    vertex 59.892282699443506 63.24138074361804 1.6999999999999764
  endloop
endfacet
facet normal -0.6911329717228287 -0.7227276218587274 0.0
  outer loop
    vertex 57.97678055234757 65.07314509193382 0.6999999999999774
    vertex 59.892282699443506 63.24138074361804 1.6999999999999764
    vertex 57.97678055234757 65.07314509193382 1.6999999999999758
  endloop
endfacet
facet normal 0.0 -1.0 0.0
  outer loop
    vertex 57.97678055234757 65.07314509193382 0.6999999999999774
    vertex 57.46708613479701 65.07314509193382 0.19999999999998028
    vertex 57.97678055234757 65.07314509193382 0.19999999999997747
  endloop
endfacet
facet normal 0.0 -1.0 0.0
  outer loop
    vertex 57.46708613479701 65.07314509193382 0.19999999999998028
    vertex 57.97678055234757 65.07314509193382 0.6999999999999774
    vertex 57.46708613479701 65.07314509193382 0.6999999999999781
  endloop
endfacet
facet normal 1.0 -0.0 -0.0
  outer loop
    vertex 55.806431196476346 63.48508709080751 0.19999999999998028
    vertex 55.806431196476346 62.997674396428565 0.6999999999999781
    vertex 55.806431196476346 62.997674396428565 0.19999999999998028
  endloop
endfacet
facet normal 1.0 -0.0 -0.0
  outer loop
    vertex 55.806431196476346 62.997674396428565 0.6999999999999781
    vertex 55.806431196476346 63.48508709080751 0.19999999999998028
    vertex 55.806431196476346 63.48508709080751 0.6999999999999781
  endloop
endfacet
facet normal 0.0 -1.0 0.0
  outer loop
    vertex 57.46708613479701 65.07314509193382 0.19999999999998028
    vertex 55.806431196476346 65.07314509193382 0.6999999999999774
    vertex 55.806431196476346 65.07314509193382 0.19999999999997747
  endloop
endfacet
facet normal 0.0 -1.0 0.0
  outer loop
    vertex 55.806431196476346 65.07314509193382 0.6999999999999774
    vertex 57.46708613479701 65.07314509193382 0.19999999999998028
    vertex 57.46708613479701 65.07314509193382 0.6999999999999781
  endloop
endfacet
facet normal 0.6911329717228285 -0.7227276218587276 1.1952765649977616e-15
  outer loop
    vertex 57.7219333435723 51.4803801357549 1.6999999999999764
    vertex 55.806431196476346 49.648615787439084 0.1999999999999831
    vertex 57.7219333435723 51.4803801357549 0.1999999999999831
  endloop
endfacet
facet normal 0.6911329717228285 -0.7227276218587276 1.1952765649977616e-15
  outer loop
    vertex 55.806431196476346 49.648615787439084 0.1999999999999831
    vertex 57.7219333435723 51.4803801357549 1.6999999999999764
    vertex 55.806431196476346 49.648615787439084 0.6999999999999775
  endloop
endfacet
facet normal 0.6911329717228285 -0.7227276218587276 1.1952765649977616e-15
  outer loop
    vertex 55.806431196476346 49.648615787439084 0.6999999999999775
    vertex 57.7219333435723 51.4803801357549 1.6999999999999764
    vertex 55.806431196476346 49.648615787439084 1.6999999999999764
  endloop
endfacet
facet normal -0.6911329717228275 0.7227276218587286 -2.305887706641547e-15
  outer loop
    vertex 57.97678055234757 47.573145091933824 0.6999999999999774
    vertex 59.89228269944352 49.40490944024962 0.1999999999999831
    vertex 57.97678055234757 47.57314509193382 0.1999999999999831
  endloop
endfacet
facet normal -0.6911329717228275 0.7227276218587286 -2.305887706641547e-15
  outer loop
    vertex 59.89228269944352 49.40490944024962 0.1999999999999831
    vertex 57.97678055234757 47.573145091933824 0.6999999999999774
    vertex 59.89228269944352 49.40490944024962 1.6999999999999762
  endloop
endfacet
facet normal -0.6911329717228275 0.7227276218587286 -2.305887706641547e-15
  outer loop
    vertex 59.89228269944352 49.40490944024962 1.6999999999999762
    vertex 57.97678055234757 47.573145091933824 0.6999999999999774
    vertex 57.97678055234757 47.573145091933824 1.6999999999999758
  endloop
endfacet
facet normal -0.6911329717228312 -0.722727621858725 1.2275412438674243e-15
  outer loop
    vertex 59.89228269944352 49.40490944024962 1.6999999999999762
    vertex 57.7219333435723 51.4803801357549 0.1999999999999831
    vertex 59.89228269944352 49.40490944024962 0.1999999999999831
  endloop
endfacet
facet normal -0.6911329717228312 -0.722727621858725 1.2275412438674243e-15
  outer loop
    vertex 57.7219333435723 51.4803801357549 0.1999999999999831
    vertex 59.89228269944352 49.40490944024962 1.6999999999999762
    vertex 57.7219333435723 51.4803801357549 1.6999999999999764
  endloop
endfacet
facet normal 1.0 -0.0 -0.0
  outer loop
    vertex 55.806431196476346 49.648615787439084 0.1999999999999831
    vertex 55.806431196476346 47.573145091933824 0.6999999999999774
    vertex 55.806431196476346 47.573145091933824 0.19999999999997747
  endloop
endfacet
facet normal 1.0 -0.0 -0.0
  outer loop
    vertex 55.806431196476346 47.573145091933824 0.6999999999999774
    vertex 55.806431196476346 49.648615787439084 0.1999999999999831
    vertex 55.806431196476346 49.648615787439084 0.6999999999999775
  endloop
endfacet
facet normal 0.6911329717228288 0.7227276218587272 1.494095706247197e-17
  outer loop
    vertex 55.806431196476346 56.07943874474439 0.6999999999999775
    vertex 57.7219333435723 54.24767439642857 0.19999999999998028
    vertex 55.806431196476346 56.07943874474439 0.19999999999998028
  endloop
endfacet
facet normal 0.6911329717228288 0.7227276218587272 1.494095706247197e-17
  outer loop
    vertex 57.7219333435723 54.24767439642857 0.19999999999998028
    vertex 55.806431196476346 56.07943874474439 0.6999999999999775
    vertex 57.7219333435723 54.24767439642857 1.6999999999999762
  endloop
endfacet
facet normal 0.6911329717228288 0.7227276218587272 1.494095706247197e-17
  outer loop
    vertex 57.7219333435723 54.24767439642857 1.6999999999999762
    vertex 55.806431196476346 56.07943874474439 0.6999999999999775
    vertex 55.806431196476346 56.07943874474439 1.6999999999999758
  endloop
endfacet
facet normal -0.6911329717228246 0.7227276218587312 1.46915840964962e-17
  outer loop
    vertex 57.7219333435723 54.24767439642857 1.6999999999999762
    vertex 59.89228269944362 56.32314509193391 0.19999999999998028
    vertex 57.7219333435723 54.24767439642857 0.19999999999998028
  endloop
endfacet
facet normal -0.6911329717228246 0.7227276218587312 1.46915840964962e-17
  outer loop
    vertex 59.89228269944362 56.32314509193391 0.19999999999998028
    vertex 57.7219333435723 54.24767439642857 1.6999999999999762
    vertex 59.89228269944362 56.32314509193391 1.6999999999999764
  endloop
endfacet
facet normal -0.6911329717228355 -0.7227276218587209 -1.3482078127264267e-16
  outer loop
    vertex 59.89228269944362 56.32314509193391 1.6999999999999764
    vertex 57.72193334357242 58.3986157874392 0.19999999999998028
    vertex 59.89228269944362 56.32314509193391 0.19999999999998028
  endloop
endfacet
facet normal -0.6911329717228355 -0.7227276218587209 -1.3482078127264267e-16
  outer loop
    vertex 57.72193334357242 58.3986157874392 0.19999999999998028
    vertex 59.89228269944362 56.32314509193391 1.6999999999999764
    vertex 57.72193334357242 58.3986157874392 1.6999999999999764
  endloop
endfacet
facet normal 0.6911329717228254 -0.7227276218587307 -9.96063804164685e-18
  outer loop
    vertex 57.72193334357242 58.3986157874392 1.6999999999999764
    vertex 55.806431196476346 56.5668514391233 0.19999999999998028
    vertex 57.72193334357242 58.3986157874392 0.19999999999998028
  endloop
endfacet
facet normal 0.6911329717228254 -0.7227276218587307 -9.96063804164685e-18
  outer loop
    vertex 55.806431196476346 56.5668514391233 0.19999999999998028
    vertex 57.72193334357242 58.3986157874392 1.6999999999999764
    vertex 55.806431196476346 56.5668514391233 0.6999999999999783
  endloop
endfacet
facet normal 0.6911329717228254 -0.7227276218587307 -9.96063804164685e-18
  outer loop
    vertex 55.806431196476346 56.5668514391233 0.6999999999999783
    vertex 57.72193334357242 58.3986157874392 1.6999999999999764
    vertex 55.806431196476346 56.5668514391233 1.6999999999999764
  endloop
endfacet
facet normal 1.0 -0.0 -0.0
  outer loop
    vertex 55.806431196476346 56.5668514391233 0.19999999999998028
    vertex 55.806431196476346 56.07943874474439 0.6999999999999775
    vertex 55.806431196476346 56.07943874474439 0.19999999999998028
  endloop
endfacet
facet normal 1.0 -0.0 -0.0
  outer loop
    vertex 55.806431196476346 56.07943874474439 0.6999999999999775
    vertex 55.806431196476346 56.5668514391233 0.19999999999998028
    vertex 55.806431196476346 56.5668514391233 0.6999999999999783
  endloop
endfacet
facet normal -0.6911329717228265 -0.7227276218587294 0.0
  outer loop
    vertex 74.10643119647636 49.648615787439084 0.6999999999999769
    vertex 72.19092904938041 51.48038013575487 0.19999999999997853
    vertex 74.10643119647636 49.648615787439084 0.19999999999997853
  endloop
endfacet
facet normal -0.6911329717228265 -0.7227276218587294 0.0
  outer loop
    vertex 72.19092904938041 51.48038013575487 0.19999999999997853
    vertex 74.10643119647636 49.648615787439084 0.6999999999999769
    vertex 72.19092904938041 51.48038013575487 1.699999999999975
  endloop
endfacet
facet normal -0.6911329717228265 -0.7227276218587294 0.0
  outer loop
    vertex 72.19092904938041 51.48038013575487 1.699999999999975
    vertex 74.10643119647636 49.648615787439084 0.6999999999999769
    vertex 74.10643119647636 49.648615787439084 1.699999999999975
  endloop
endfacet
facet normal 0.6911329717228267 -0.7227276218587291 3.3046480183183183e-16
  outer loop
    vertex 72.19092904938041 51.48038013575487 1.699999999999975
    vertex 70.0205796935092 49.40490944024962 0.19999999999997922
    vertex 72.19092904938041 51.48038013575487 0.19999999999997853
  endloop
endfacet
facet normal 0.6911329717228267 -0.7227276218587291 3.3046480183183183e-16
  outer loop
    vertex 70.0205796935092 49.40490944024962 0.19999999999997922
    vertex 72.19092904938041 51.48038013575487 1.699999999999975
    vertex 70.0205796935092 49.40490944024962 1.6999999999999758
  endloop
endfacet
facet normal 0.6911329717228276 0.7227276218587284 2.4901595104120263e-17
  outer loop
    vertex 70.0205796935092 49.40490944024962 1.6999999999999758
    vertex 71.93608184060514 47.573145091933824 0.19999999999997922
    vertex 70.0205796935092 49.40490944024962 0.19999999999997922
  endloop
endfacet
facet normal 0.6911329717228276 0.7227276218587284 2.4901595104120263e-17
  outer loop
    vertex 71.93608184060514 47.573145091933824 0.19999999999997922
    vertex 70.0205796935092 49.40490944024962 1.6999999999999758
    vertex 71.93608184060514 47.573145091933824 0.6999999999999775
  endloop
endfacet
facet normal 0.6911329717228276 0.7227276218587284 2.4901595104120263e-17
  outer loop
    vertex 71.93608184060514 47.573145091933824 0.6999999999999775
    vertex 70.0205796935092 49.40490944024962 1.6999999999999758
    vertex 71.93608184060514 47.573145091933824 1.6999999999999762
  endloop
endfacet
facet normal -0.6911329717228258 0.72272762185873 -5.4209741162258786e-17
  outer loop
    vertex 57.72193334357228 61.16591004811278 1.6999999999999764
    vertex 59.892282699443506 63.24138074361804 0.19999999999998028
    vertex 57.72193334357228 61.16591004811278 0.19999999999998028
  endloop
endfacet
facet normal -0.6911329717228258 0.72272762185873 -5.4209741162258786e-17
  outer loop
    vertex 59.892282699443506 63.24138074361804 0.19999999999998028
    vertex 57.72193334357228 61.16591004811278 1.6999999999999764
    vertex 59.892282699443506 63.24138074361804 1.6999999999999764
  endloop
endfacet
facet normal 0.6911329717228278 0.7227276218587283 -1.104997413105866e-17
  outer loop
    vertex 62.78608184060514 63.24138074361804 1.6999999999999762
    vertex 64.95643119647636 61.165910048112764 0.1999999999999773
    vertex 62.78608184060514 63.24138074361804 0.1999999999999773
  endloop
endfacet
facet normal 0.6911329717228278 0.7227276218587283 -1.104997413105866e-17
  outer loop
    vertex 64.95643119647636 61.165910048112764 0.1999999999999773
    vertex 62.78608184060514 63.24138074361804 1.6999999999999762
    vertex 64.95643119647636 61.165910048112764 1.6999999999999758
  endloop
endfacet
facet normal -0.6911329717228278 0.7227276218587283 -1.104997413105868e-17
  outer loop
    vertex 64.95643119647636 61.165910048112764 1.6999999999999758
    vertex 67.12678055234758 63.24138074361802 0.1999999999999773
    vertex 64.95643119647636 61.165910048112764 0.1999999999999773
  endloop
endfacet
facet normal -0.6911329717228278 0.7227276218587283 -1.104997413105868e-17
  outer loop
    vertex 67.12678055234758 63.24138074361802 0.1999999999999773
    vertex 64.95643119647636 61.165910048112764 1.6999999999999758
    vertex 67.12678055234758 63.24138074361802 1.6999999999999762
  endloop
endfacet
facet normal 0.0 -1.0 0.0
  outer loop
    vertex 65.21127840525163 65.07314509193381 0.699999999999979
    vertex 64.70158398770107 65.07314509193381 0.199999999999978
    vertex 65.21127840525163 65.07314509193381 0.1999999999999773
  endloop
endfacet
facet normal 0.0 -1.0 0.0
  outer loop
    vertex 64.70158398770107 65.07314509193381 0.199999999999978
    vertex 65.21127840525163 65.07314509193381 0.699999999999979
    vertex 64.70158398770107 65.07314509193381 0.6999999999999796
  endloop
endfacet
facet normal -0.6911329717228265 -0.7227276218587294 0.0
  outer loop
    vertex 74.10643119647636 56.56685143912328 0.6999999999999772
    vertex 72.1909290493804 58.39861578743909 0.19999999999997967
    vertex 74.10643119647636 56.56685143912328 0.19999999999997967
  endloop
endfacet
facet normal -0.6911329717228265 -0.7227276218587294 0.0
  outer loop
    vertex 72.1909290493804 58.39861578743909 0.19999999999997967
    vertex 74.10643119647636 56.56685143912328 0.6999999999999772
    vertex 72.1909290493804 58.39861578743909 1.6999999999999762
  endloop
endfacet
facet normal -0.6911329717228265 -0.7227276218587294 0.0
  outer loop
    vertex 72.1909290493804 58.39861578743909 1.6999999999999762
    vertex 74.10643119647636 56.56685143912328 0.6999999999999772
    vertex 74.10643119647636 56.56685143912328 1.6999999999999762
  endloop
endfacet
facet normal 0.6911329717228278 -0.7227276218587283 -1.519371443020652e-17
  outer loop
    vertex 72.1909290493804 58.39861578743909 0.19999999999997967
    vertex 70.02057969350919 56.32314509193383 1.6999999999999758
    vertex 70.02057969350919 56.32314509193383 0.19999999999997897
  endloop
endfacet
facet normal 0.6911329717228278 -0.7227276218587283 -1.519371443020652e-17
  outer loop
    vertex 70.02057969350919 56.32314509193383 1.6999999999999758
    vertex 72.1909290493804 58.39861578743909 0.19999999999997967
    vertex 72.1909290493804 58.39861578743909 1.6999999999999762
  endloop
endfacet
facet normal 0.6911329717228278 0.7227276218587282 2.748017597206629e-30
  outer loop
    vertex 70.02057969350919 56.32314509193383 1.6999999999999758
    vertex 72.19092904938041 54.247674396428565 0.19999999999997897
    vertex 70.02057969350919 56.32314509193383 0.19999999999997897
  endloop
endfacet
facet normal 0.6911329717228278 0.7227276218587282 2.748017597206629e-30
  outer loop
    vertex 72.19092904938041 54.247674396428565 0.19999999999997897
    vertex 70.02057969350919 56.32314509193383 1.6999999999999758
    vertex 72.19092904938041 54.247674396428565 1.6999999999999758
  endloop
endfacet
facet normal -1.0 0.0 0.0
  outer loop
    vertex 74.10643119647636 56.56685143912328 0.6999999999999772
    vertex 74.10643119647636 56.079438744744365 0.19999999999997967
    vertex 74.10643119647636 56.079438744744365 0.6999999999999772
  endloop
endfacet
facet normal -1.0 0.0 0.0
  outer loop
    vertex 74.10643119647636 56.079438744744365 0.19999999999997967
    vertex 74.10643119647636 56.56685143912328 0.6999999999999772
    vertex 74.10643119647636 56.56685143912328 0.19999999999997967
  endloop
endfacet
facet normal 0.6911329717228278 0.7227276218587282 -4.588224552688785e-18
  outer loop
    vertex 70.0205796935092 63.241380743618045 1.6999999999999762
    vertex 72.19092904938041 61.16591004811278 0.19999999999997367
    vertex 70.0205796935092 63.241380743618045 0.19999999999997367
  endloop
endfacet
facet normal 0.6911329717228278 0.7227276218587282 -4.588224552688785e-18
  outer loop
    vertex 72.19092904938041 61.16591004811278 0.19999999999997367
    vertex 70.0205796935092 63.241380743618045 1.6999999999999762
    vertex 72.19092904938041 61.16591004811278 1.6999999999999758
  endloop
endfacet
facet normal 0.6911329717228265 -0.7227276218587295 -3.48622331457686e-17
  outer loop
    vertex 71.93608184060514 65.07314509193382 0.699999999999978
    vertex 70.0205796935092 63.241380743618045 0.19999999999997367
    vertex 71.93608184060514 65.07314509193382 0.19999999999997367
  endloop
endfacet
facet normal 0.6911329717228265 -0.7227276218587295 -3.48622331457686e-17
  outer loop
    vertex 70.0205796935092 63.241380743618045 0.19999999999997367
    vertex 71.93608184060514 65.07314509193382 0.699999999999978
    vertex 70.0205796935092 63.241380743618045 1.6999999999999762
  endloop
endfacet
facet normal 0.6911329717228265 -0.7227276218587295 -3.48622331457686e-17
  outer loop
    vertex 70.0205796935092 63.241380743618045 1.6999999999999762
    vertex 71.93608184060514 65.07314509193382 0.699999999999978
    vertex 71.93608184060514 65.07314509193382 1.6999999999999764
  endloop
endfacet
facet normal -0.6911329717228278 0.7227276218587284 1.933745472935522e-16
  outer loop
    vertex 71.93608184060514 47.573145091933824 0.19999999999997922
    vertex 74.10643119647636 49.648615787439084 0.6999999999999769
    vertex 74.10643119647636 49.648615787439084 0.19999999999997853
  endloop
endfacet
facet normal -0.6911329717228278 0.7227276218587284 1.933745472935522e-16
  outer loop
    vertex 74.10643119647636 49.648615787439084 0.6999999999999769
    vertex 71.93608184060514 47.573145091933824 0.19999999999997922
    vertex 71.93608184060514 47.573145091933824 0.6999999999999775
  endloop
endfacet
facet normal -0.691132971722826 -0.7227276218587301 -5.355854808421426e-17
  outer loop
    vertex 74.10643119647636 62.997674396428565 0.6999999999999772
    vertex 71.93608184060514 65.07314509193382 0.19999999999997367
    vertex 74.10643119647636 62.997674396428565 0.19999999999997367
  endloop
endfacet
facet normal -0.691132971722826 -0.7227276218587301 -5.355854808421426e-17
  outer loop
    vertex 71.93608184060514 65.07314509193382 0.19999999999997367
    vertex 74.10643119647636 62.997674396428565 0.6999999999999772
    vertex 71.93608184060514 65.07314509193382 0.699999999999978
  endloop
endfacet
facet normal 0.0 -1.0 0.0
  outer loop
    vertex 64.7015839877011 47.573145091933824 1.6999999999999764
    vertex 57.97678055234757 47.573145091933824 0.6999999999999774
    vertex 64.7015839877011 47.573145091933824 0.6999999999999774
  endloop
endfacet
facet normal 0.0 -1.0 0.0
  outer loop
    vertex 57.97678055234757 47.573145091933824 0.6999999999999774
    vertex 64.7015839877011 47.573145091933824 1.6999999999999764
    vertex 57.97678055234757 47.573145091933824 1.6999999999999758
  endloop
endfacet
facet normal 1.0 -0.0 -0.0
  outer loop
    vertex 74.10643119647636 62.997674396428565 0.6999999999999772
    vertex 74.10643119647636 56.56685143912328 1.6999999999999762
    vertex 74.10643119647636 56.56685143912328 0.6999999999999772
  endloop
endfacet
facet normal 1.0 -0.0 -0.0
  outer loop
    vertex 74.10643119647636 56.56685143912328 1.6999999999999762
    vertex 74.10643119647636 62.997674396428565 0.6999999999999772
    vertex 74.10643119647636 62.997674396428565 1.6999999999999758
  endloop
endfacet
facet normal 0.0 -1.0 0.0
  outer loop
    vertex 71.93608184060514 47.573145091933824 0.6999999999999775
    vertex 65.21127840525162 47.573145091933824 1.6999999999999764
    vertex 65.21127840525162 47.573145091933824 0.6999999999999774
  endloop
endfacet
facet normal 0.0 -1.0 0.0
  outer loop
    vertex 65.21127840525162 47.573145091933824 1.6999999999999764
    vertex 71.93608184060514 47.573145091933824 0.6999999999999775
    vertex 71.93608184060514 47.573145091933824 1.6999999999999762
  endloop
endfacet
facet normal 1.0 -0.0 -0.0
  outer loop
    vertex 74.10643119647636 56.079438744744365 0.6999999999999772
    vertex 74.10643119647636 49.648615787439084 1.699999999999975
    vertex 74.10643119647636 49.648615787439084 0.6999999999999769
  endloop
endfacet
facet normal 1.0 -0.0 -0.0
  outer loop
    vertex 74.10643119647636 49.648615787439084 1.699999999999975
    vertex 74.10643119647636 56.079438744744365 0.6999999999999772
    vertex 74.10643119647636 56.079438744744365 1.6999999999999764
  endloop
endfacet
facet normal -1.0 0.0 0.0
  outer loop
    vertex 55.806431196476346 49.648615787439084 1.6999999999999764
    vertex 55.806431196476346 56.07943874474439 0.6999999999999775
    vertex 55.806431196476346 49.648615787439084 0.6999999999999775
  endloop
endfacet
facet normal -1.0 0.0 0.0
  outer loop
    vertex 55.806431196476346 56.07943874474439 0.6999999999999775
    vertex 55.806431196476346 49.648615787439084 1.6999999999999764
    vertex 55.806431196476346 56.07943874474439 1.6999999999999758
  endloop
endfacet
facet normal 1.6612198041177112e-15 1.0 2.819966482547896e-15
  outer loop
    vertex 57.97678055234757 65.07314509193382 1.6999999999999758
    vertex 64.70158398770107 65.07314509193381 0.6999999999999796
    vertex 57.97678055234757 65.07314509193382 0.6999999999999774
  endloop
endfacet
facet normal 1.6612198041177112e-15 1.0 2.819966482547896e-15
  outer loop
    vertex 64.70158398770107 65.07314509193381 0.6999999999999796
    vertex 57.97678055234757 65.07314509193382 1.6999999999999758
    vertex 64.70158398770107 65.07314509193381 1.6999999999999764
  endloop
endfacet
facet normal -1.0 1.210501183963621e-16 2.819966482547893e-15
  outer loop
    vertex 55.806431196476346 62.997674396428565 1.6999999999999764
    vertex 55.806431196476346 56.5668514391233 0.6999999999999783
    vertex 55.806431196476346 56.5668514391233 1.6999999999999764
  endloop
endfacet
facet normal -1.0 1.210501183963621e-16 2.819966482547893e-15
  outer loop
    vertex 55.806431196476346 56.5668514391233 0.6999999999999783
    vertex 55.806431196476346 62.997674396428565 1.6999999999999764
    vertex 55.806431196476346 62.997674396428565 0.6999999999999781
  endloop
endfacet
facet normal -1.6612198041177092e-15 1.0 2.819966482547913e-15
  outer loop
    vertex 65.21127840525163 65.07314509193381 0.699999999999979
    vertex 71.93608184060514 65.07314509193382 1.6999999999999764
    vertex 71.93608184060514 65.07314509193382 0.699999999999978
  endloop
endfacet
facet normal -1.6612198041177092e-15 1.0 2.819966482547913e-15
  outer loop
    vertex 71.93608184060514 65.07314509193382 1.6999999999999764
    vertex 65.21127840525163 65.07314509193381 0.699999999999979
    vertex 65.21127840525163 65.07314509193381 1.6999999999999762
  endloop
endfacet
facet normal 0.0 0.0 -1.0
  outer loop
    vertex 62.78608184060514 56.32314509193383 0.19999999999997747
    vertex 63.50953162589561 52.86402726609178 0.1999999999999831
    vertex 61.33918227002441 54.93949796159707 0.1999999999999831
  endloop
endfacet
facet normal 0.0 0.0 -1.0
  outer loop
    vertex 63.50953162589561 52.86402726609178 0.1999999999999831
    vertex 62.78608184060514 56.32314509193383 0.19999999999997747
    vertex 64.95643119647636 54.247674396428565 0.19999999999997464
  endloop
endfacet
facet normal 0.0 0.0 -1.0
  outer loop
    vertex 57.7219333435723 54.24767439642857 0.19999999999998028
    vertex 55.806431196476346 49.648615787439084 0.1999999999999831
    vertex 55.806431196476346 56.07943874474439 0.19999999999998028
  endloop
endfacet
facet normal 0.0 0.0 -1.0
  outer loop
    vertex 55.806431196476346 49.648615787439084 0.1999999999999831
    vertex 57.7219333435723 54.24767439642857 0.19999999999998028
    vertex 57.7219333435723 51.4803801357549 0.1999999999999831
  endloop
endfacet
facet normal 0.0 0.0 -1.0
  outer loop
    vertex 57.7219333435723 51.4803801357549 0.1999999999999831
    vertex 57.7219333435723 54.24767439642857 0.19999999999998028
    vertex 59.89228269944362 56.32314509193391 0.19999999999998028
  endloop
endfacet
facet normal 0.0 0.0 -1.0
  outer loop
    vertex 57.7219333435723 51.4803801357549 0.1999999999999831
    vertex 59.89228269944362 56.32314509193391 0.19999999999998028
    vertex 59.16883291415312 52.86402726609173 0.1999999999999831
  endloop
endfacet
facet normal 0.0 0.0 -1.0
  outer loop
    vertex 59.16883291415312 52.86402726609173 0.1999999999999831
    vertex 59.89228269944362 56.32314509193391 0.19999999999998028
    vertex 61.33918227002441 54.93949796159707 0.1999999999999831
  endloop
endfacet
facet normal 0.0 0.0 -1.0
  outer loop
    vertex 61.33918227002441 54.93949796159707 0.1999999999999831
    vertex 59.89228269944362 56.32314509193391 0.19999999999998028
    vertex 61.33918227002433 57.70679222227066 0.19999999999998205
  endloop
endfacet
facet normal 0.0 0.0 -1.0
  outer loop
    vertex 61.33918227002441 54.93949796159707 0.1999999999999831
    vertex 61.33918227002433 57.70679222227066 0.19999999999998205
    vertex 63.509531625895555 59.782262917775924 0.19999999999998205
  endloop
endfacet
facet normal 0.0 0.0 -1.0
  outer loop
    vertex 61.33918227002441 54.93949796159707 0.1999999999999831
    vertex 63.509531625895555 59.782262917775924 0.19999999999998205
    vertex 62.78608184060514 56.32314509193383 0.19999999999997747
  endloop
endfacet
facet normal 0.0 0.0 -1.0
  outer loop
    vertex 62.78608184060514 56.32314509193383 0.19999999999997747
    vertex 63.509531625895555 59.782262917775924 0.19999999999998205
    vertex 64.95643119647636 58.39861578743909 0.19999999999997464
  endloop
endfacet
facet normal 0.0 0.0 -1.0
  outer loop
    vertex 62.78608184060514 63.24138074361804 0.1999999999999773
    vertex 63.509531625895555 59.782262917775924 0.19999999999998205
    vertex 61.33918227002432 61.8577336132812 0.19999999999998205
  endloop
endfacet
facet normal 0.0 0.0 -1.0
  outer loop
    vertex 63.509531625895555 59.782262917775924 0.19999999999998205
    vertex 62.78608184060514 63.24138074361804 0.1999999999999773
    vertex 64.95643119647636 61.165910048112764 0.1999999999999773
  endloop
endfacet
facet normal 0.0 0.0 -1.0
  outer loop
    vertex 63.509531625895555 59.782262917775924 0.19999999999998205
    vertex 64.95643119647636 61.165910048112764 0.1999999999999773
    vertex 64.95643119647636 58.39861578743909 0.19999999999997464
  endloop
endfacet
facet normal 0.0 0.0 -1.0
  outer loop
    vertex 64.95643119647636 58.39861578743909 0.19999999999997464
    vertex 64.95643119647636 61.165910048112764 0.1999999999999773
    vertex 67.12678055234758 56.32314509193382 0.19999999999997464
  endloop
endfacet
facet normal 0.0 0.0 -1.0
  outer loop
    vertex 67.12678055234758 56.32314509193382 0.19999999999997464
    vertex 64.95643119647636 61.165910048112764 0.1999999999999773
    vertex 66.40333076705717 59.78226291777594 0.19999999999997323
  endloop
endfacet
facet normal 0.0 0.0 -1.0
  outer loop
    vertex 67.12678055234758 56.32314509193382 0.19999999999997464
    vertex 66.40333076705717 59.78226291777594 0.19999999999997323
    vertex 68.5736801229284 57.70679222227067 0.19999999999997323
  endloop
endfacet
facet normal 0.0 0.0 -1.0
  outer loop
    vertex 67.12678055234758 56.32314509193382 0.19999999999997464
    vertex 68.5736801229284 57.70679222227067 0.19999999999997323
    vertex 68.57368012292838 54.93949796159699 0.1999999999999676
  endloop
endfacet
facet normal 0.0 0.0 -1.0
  outer loop
    vertex 68.57368012292838 54.93949796159699 0.1999999999999676
    vertex 68.5736801229284 57.70679222227067 0.19999999999997323
    vertex 70.7440294787996 52.864027266091725 0.1999999999999676
  endloop
endfacet
facet normal 0.0 0.0 -1.0
  outer loop
    vertex 70.7440294787996 52.864027266091725 0.1999999999999676
    vertex 68.5736801229284 57.70679222227067 0.19999999999997323
    vertex 70.02057969350919 56.32314509193383 0.19999999999997897
  endloop
endfacet
facet normal 0.0 0.0 -1.0
  outer loop
    vertex 70.7440294787996 52.864027266091725 0.1999999999999676
    vertex 70.02057969350919 56.32314509193383 0.19999999999997897
    vertex 72.19092904938041 54.247674396428565 0.19999999999997897
  endloop
endfacet
facet normal 0.0 0.0 -1.0
  outer loop
    vertex 55.056431196476346 65.82314509193382 0.19999999999997747
    vertex 55.806431196476346 65.07314509193382 0.19999999999997747
    vertex 55.056431196476346 46.82314509193383 0.19999999999997747
  endloop
endfacet
facet normal 0.0 0.0 -1.0
  outer loop
    vertex 55.806431196476346 65.07314509193382 0.19999999999997747
    vertex 55.056431196476346 65.82314509193382 0.19999999999997747
    vertex 74.85643119647635 65.82314509193382 0.19999999999997747
  endloop
endfacet
facet normal 0.0 0.0 -1.0
  outer loop
    vertex 55.806431196476346 65.07314509193382 0.19999999999997747
    vertex 74.85643119647635 65.82314509193382 0.19999999999997747
    vertex 57.46708613479701 65.07314509193382 0.19999999999998028
  endloop
endfacet
facet normal 0.0 0.0 -1.0
  outer loop
    vertex 57.46708613479701 65.07314509193382 0.19999999999998028
    vertex 74.85643119647635 65.82314509193382 0.19999999999997747
    vertex 57.97678055234757 65.07314509193382 0.19999999999997747
  endloop
endfacet
facet normal 0.0 0.0 -1.0
  outer loop
    vertex 57.97678055234757 65.07314509193382 0.19999999999997747
    vertex 74.85643119647635 65.82314509193382 0.19999999999997747
    vertex 64.70158398770107 65.07314509193381 0.199999999999978
  endloop
endfacet
facet normal 0.0 0.0 -1.0
  outer loop
    vertex 57.97678055234757 65.07314509193382 0.19999999999997747
    vertex 64.70158398770107 65.07314509193381 0.199999999999978
    vertex 59.892282699443506 63.24138074361804 0.19999999999998028
  endloop
endfacet
facet normal 0.0 0.0 -1.0
  outer loop
    vertex 59.892282699443506 63.24138074361804 0.19999999999998028
    vertex 64.70158398770107 65.07314509193381 0.199999999999978
    vertex 61.33918227002432 61.8577336132812 0.19999999999998205
  endloop
endfacet
facet normal 0.0 0.0 -1.0
  outer loop
    vertex 61.33918227002432 61.8577336132812 0.19999999999998205
    vertex 64.70158398770107 65.07314509193381 0.199999999999978
    vertex 62.78608184060514 63.24138074361804 0.1999999999999773
  endloop
endfacet
facet normal 0.0 0.0 -1.0
  outer loop
    vertex 64.70158398770107 65.07314509193381 0.199999999999978
    vertex 74.85643119647635 65.82314509193382 0.19999999999997747
    vertex 65.21127840525163 65.07314509193381 0.1999999999999773
  endloop
endfacet
facet normal 0.0 0.0 -1.0
  outer loop
    vertex 65.21127840525163 65.07314509193381 0.1999999999999773
    vertex 74.85643119647635 65.82314509193382 0.19999999999997747
    vertex 71.93608184060514 65.07314509193382 0.19999999999997367
  endloop
endfacet
facet normal 0.0 0.0 -1.0
  outer loop
    vertex 65.21127840525163 65.07314509193381 0.1999999999999773
    vertex 71.93608184060514 65.07314509193382 0.19999999999997367
    vertex 67.12678055234758 63.24138074361802 0.1999999999999773
  endloop
endfacet
facet normal 0.0 0.0 -1.0
  outer loop
    vertex 67.12678055234758 63.24138074361802 0.1999999999999773
    vertex 71.93608184060514 65.07314509193382 0.19999999999997367
    vertex 70.0205796935092 63.241380743618045 0.19999999999997367
  endloop
endfacet
facet normal 0.0 0.0 -1.0
  outer loop
    vertex 67.12678055234758 63.24138074361802 0.1999999999999773
    vertex 70.0205796935092 63.241380743618045 0.19999999999997367
    vertex 68.57368012292838 61.8577336132812 0.19999999999997464
  endloop
endfacet
facet normal 0.0 0.0 -1.0
  outer loop
    vertex 71.93608184060514 65.07314509193382 0.19999999999997367
    vertex 74.85643119647635 65.82314509193382 0.19999999999997747
    vertex 74.10643119647636 62.997674396428565 0.19999999999997367
  endloop
endfacet
facet normal 0.0 0.0 -1.0
  outer loop
    vertex 74.10643119647636 62.997674396428565 0.19999999999997367
    vertex 74.85643119647635 65.82314509193382 0.19999999999997747
    vertex 74.10643119647636 56.56685143912328 0.19999999999997967
  endloop
endfacet
facet normal 0.0 0.0 -1.0
  outer loop
    vertex 74.10643119647636 56.56685143912328 0.19999999999997967
    vertex 74.85643119647635 65.82314509193382 0.19999999999997747
    vertex 74.10643119647636 56.079438744744365 0.19999999999997967
  endloop
endfacet
facet normal 0.0 0.0 -1.0
  outer loop
    vertex 74.10643119647636 56.079438744744365 0.19999999999997967
    vertex 74.85643119647635 65.82314509193382 0.19999999999997747
    vertex 74.10643119647636 49.648615787439084 0.19999999999997853
  endloop
endfacet
facet normal 0.0 0.0 -1.0
  outer loop
    vertex 55.056431196476346 46.82314509193383 0.19999999999997747
    vertex 55.806431196476346 47.573145091933824 0.19999999999997747
    vertex 74.85643119647635 46.823145091933824 0.19999999999997747
  endloop
endfacet
facet normal 0.0 0.0 -1.0
  outer loop
    vertex 55.806431196476346 47.573145091933824 0.19999999999997747
    vertex 55.056431196476346 46.82314509193383 0.19999999999997747
    vertex 55.806431196476346 65.07314509193382 0.19999999999997747
  endloop
endfacet
facet normal 0.0 0.0 -1.0
  outer loop
    vertex 55.806431196476346 47.573145091933824 0.19999999999997747
    vertex 55.806431196476346 65.07314509193382 0.19999999999997747
    vertex 55.806431196476346 63.48508709080751 0.19999999999998028
  endloop
endfacet
facet normal 0.0 0.0 -1.0
  outer loop
    vertex 55.806431196476346 47.573145091933824 0.19999999999997747
    vertex 55.806431196476346 63.48508709080751 0.19999999999998028
    vertex 55.806431196476346 62.997674396428565 0.19999999999998028
  endloop
endfacet
facet normal 0.0 0.0 -1.0
  outer loop
    vertex 55.806431196476346 47.573145091933824 0.19999999999997747
    vertex 55.806431196476346 62.997674396428565 0.19999999999998028
    vertex 55.806431196476346 56.5668514391233 0.19999999999998028
  endloop
endfacet
facet normal 0.0 0.0 -1.0
  outer loop
    vertex 55.806431196476346 47.573145091933824 0.19999999999997747
    vertex 55.806431196476346 56.5668514391233 0.19999999999998028
    vertex 55.806431196476346 56.07943874474439 0.19999999999998028
  endloop
endfacet
facet normal 0.0 0.0 -1.0
  outer loop
    vertex 55.806431196476346 47.573145091933824 0.19999999999997747
    vertex 55.806431196476346 56.07943874474439 0.19999999999998028
    vertex 55.806431196476346 49.648615787439084 0.1999999999999831
  endloop
endfacet
facet normal 0.0 0.0 -1.0
  outer loop
    vertex 74.85643119647635 46.823145091933824 0.19999999999997747
    vertex 55.806431196476346 47.573145091933824 0.19999999999997747
    vertex 57.97678055234757 47.57314509193382 0.1999999999999831
  endloop
endfacet
facet normal 0.0 0.0 -1.0
  outer loop
    vertex 74.85643119647635 46.823145091933824 0.19999999999997747
    vertex 57.97678055234757 47.57314509193382 0.1999999999999831
    vertex 64.7015839877011 47.573145091933824 0.19999999999998028
  endloop
endfacet
facet normal 0.0 0.0 -1.0
  outer loop
    vertex 64.7015839877011 47.573145091933824 0.19999999999998028
    vertex 57.97678055234757 47.57314509193382 0.1999999999999831
    vertex 59.89228269944352 49.40490944024962 0.1999999999999831
  endloop
endfacet
facet normal 0.0 0.0 -1.0
  outer loop
    vertex 64.7015839877011 47.573145091933824 0.19999999999998028
    vertex 59.89228269944352 49.40490944024962 0.1999999999999831
    vertex 62.78608184060514 49.40490944024963 0.19999999999998028
  endloop
endfacet
facet normal 0.0 0.0 -1.0
  outer loop
    vertex 62.78608184060514 49.40490944024963 0.19999999999998028
    vertex 59.89228269944352 49.40490944024962 0.1999999999999831
    vertex 61.33918227002434 50.788556570586465 0.1999999999999831
  endloop
endfacet
facet normal 0.0 0.0 -1.0
  outer loop
    vertex 74.85643119647635 46.823145091933824 0.19999999999997747
    vertex 64.7015839877011 47.573145091933824 0.19999999999998028
    vertex 65.21127840525162 47.573145091933824 0.19999999999998028
  endloop
endfacet
facet normal 0.0 0.0 -1.0
  outer loop
    vertex 74.85643119647635 46.823145091933824 0.19999999999997747
    vertex 65.21127840525162 47.573145091933824 0.19999999999998028
    vertex 71.93608184060514 47.573145091933824 0.19999999999997922
  endloop
endfacet
facet normal 0.0 0.0 -1.0
  outer loop
    vertex 71.93608184060514 47.573145091933824 0.19999999999997922
    vertex 65.21127840525162 47.573145091933824 0.19999999999998028
    vertex 67.1267805523476 49.40490944024965 0.19999999999998028
  endloop
endfacet
facet normal 0.0 0.0 -1.0
  outer loop
    vertex 71.93608184060514 47.573145091933824 0.19999999999997922
    vertex 67.1267805523476 49.40490944024965 0.19999999999998028
    vertex 70.0205796935092 49.40490944024962 0.19999999999997922
  endloop
endfacet
facet normal 0.0 0.0 -1.0
  outer loop
    vertex 70.0205796935092 49.40490944024962 0.19999999999997922
    vertex 67.1267805523476 49.40490944024965 0.19999999999998028
    vertex 68.5736801229284 50.788556570586465 0.1999999999999676
  endloop
endfacet
facet normal 0.0 0.0 -1.0
  outer loop
    vertex 74.85643119647635 46.823145091933824 0.19999999999997747
    vertex 71.93608184060514 47.573145091933824 0.19999999999997922
    vertex 74.10643119647636 49.648615787439084 0.19999999999997853
  endloop
endfacet
facet normal 0.0 0.0 -1.0
  outer loop
    vertex 74.85643119647635 46.823145091933824 0.19999999999997747
    vertex 74.10643119647636 49.648615787439084 0.19999999999997853
    vertex 74.85643119647635 65.82314509193382 0.19999999999997747
  endloop
endfacet
facet normal 0.0 0.0 -1.0
  outer loop
    vertex 70.7440294787996 52.864027266091725 0.1999999999999676
    vertex 70.0205796935092 49.40490944024962 0.19999999999997922
    vertex 68.5736801229284 50.788556570586465 0.1999999999999676
  endloop
endfacet
facet normal 0.0 0.0 -1.0
  outer loop
    vertex 70.0205796935092 49.40490944024962 0.19999999999997922
    vertex 70.7440294787996 52.864027266091725 0.1999999999999676
    vertex 72.19092904938041 51.48038013575487 0.19999999999997853
  endloop
endfacet
facet normal 0.0 0.0 -1.0
  outer loop
    vertex 72.19092904938041 51.48038013575487 0.19999999999997853
    vertex 70.7440294787996 52.864027266091725 0.1999999999999676
    vertex 72.19092904938041 54.247674396428565 0.19999999999997897
  endloop
endfacet
facet normal 0.0 0.0 -1.0
  outer loop
    vertex 72.19092904938041 51.48038013575487 0.19999999999997853
    vertex 72.19092904938041 54.247674396428565 0.19999999999997897
    vertex 74.10643119647636 56.079438744744365 0.19999999999997967
  endloop
endfacet
facet normal 0.0 0.0 -1.0
  outer loop
    vertex 72.19092904938041 51.48038013575487 0.19999999999997853
    vertex 74.10643119647636 56.079438744744365 0.19999999999997967
    vertex 74.10643119647636 49.648615787439084 0.19999999999997853
  endloop
endfacet
facet normal 0.0 0.0 -1.0
  outer loop
    vertex 70.0205796935092 63.241380743618045 0.19999999999997367
    vertex 70.7440294787996 59.782262917775924 0.19999999999997323
    vertex 68.57368012292838 61.8577336132812 0.19999999999997464
  endloop
endfacet
facet normal 0.0 0.0 -1.0
  outer loop
    vertex 70.7440294787996 59.782262917775924 0.19999999999997323
    vertex 70.0205796935092 63.241380743618045 0.19999999999997367
    vertex 72.19092904938041 61.16591004811278 0.19999999999997367
  endloop
endfacet
facet normal 0.0 0.0 -1.0
  outer loop
    vertex 70.7440294787996 59.782262917775924 0.19999999999997323
    vertex 72.19092904938041 61.16591004811278 0.19999999999997367
    vertex 72.1909290493804 58.39861578743909 0.19999999999997967
  endloop
endfacet
facet normal 0.0 0.0 -1.0
  outer loop
    vertex 72.1909290493804 58.39861578743909 0.19999999999997967
    vertex 72.19092904938041 61.16591004811278 0.19999999999997367
    vertex 74.10643119647636 56.56685143912328 0.19999999999997967
  endloop
endfacet
facet normal 0.0 0.0 -1.0
  outer loop
    vertex 74.10643119647636 56.56685143912328 0.19999999999997967
    vertex 72.19092904938041 61.16591004811278 0.19999999999997367
    vertex 74.10643119647636 62.997674396428565 0.19999999999997367
  endloop
endfacet
facet normal 0.0 0.0 -1.0
  outer loop
    vertex 70.7440294787996 59.782262917775924 0.19999999999997323
    vertex 70.02057969350919 56.32314509193383 0.19999999999997897
    vertex 68.5736801229284 57.70679222227067 0.19999999999997323
  endloop
endfacet
facet normal 0.0 0.0 -1.0
  outer loop
    vertex 70.02057969350919 56.32314509193383 0.19999999999997897
    vertex 70.7440294787996 59.782262917775924 0.19999999999997323
    vertex 72.1909290493804 58.39861578743909 0.19999999999997967
  endloop
endfacet
facet normal 0.0 0.0 -1.0
  outer loop
    vertex 66.40333076705717 52.86402726609173 0.1999999999999676
    vertex 67.1267805523476 49.40490944024965 0.19999999999998028
    vertex 64.9564311964764 51.48038013575493 0.19999999999998028
  endloop
endfacet
facet normal 0.0 0.0 -1.0
  outer loop
    vertex 67.1267805523476 49.40490944024965 0.19999999999998028
    vertex 66.40333076705717 52.86402726609173 0.1999999999999676
    vertex 68.5736801229284 50.788556570586465 0.1999999999999676
  endloop
endfacet
facet normal 0.0 0.0 -1.0
  outer loop
    vertex 63.50953162589561 52.86402726609178 0.1999999999999831
    vertex 62.78608184060514 49.40490944024963 0.19999999999998028
    vertex 61.33918227002434 50.788556570586465 0.1999999999999831
  endloop
endfacet
facet normal 0.0 0.0 -1.0
  outer loop
    vertex 62.78608184060514 49.40490944024963 0.19999999999998028
    vertex 63.50953162589561 52.86402726609178 0.1999999999999831
    vertex 64.9564311964764 51.48038013575493 0.19999999999998028
  endloop
endfacet
facet normal 0.0 0.0 -1.0
  outer loop
    vertex 64.9564311964764 51.48038013575493 0.19999999999998028
    vertex 63.50953162589561 52.86402726609178 0.1999999999999831
    vertex 64.95643119647636 54.247674396428565 0.19999999999997464
  endloop
endfacet
facet normal 0.0 0.0 -1.0
  outer loop
    vertex 64.9564311964764 51.48038013575493 0.19999999999998028
    vertex 64.95643119647636 54.247674396428565 0.19999999999997464
    vertex 67.12678055234758 56.32314509193382 0.19999999999997464
  endloop
endfacet
facet normal 0.0 0.0 -1.0
  outer loop
    vertex 64.9564311964764 51.48038013575493 0.19999999999998028
    vertex 67.12678055234758 56.32314509193382 0.19999999999997464
    vertex 66.40333076705717 52.86402726609173 0.1999999999999676
  endloop
endfacet
facet normal 0.0 0.0 -1.0
  outer loop
    vertex 66.40333076705717 52.86402726609173 0.1999999999999676
    vertex 67.12678055234758 56.32314509193382 0.19999999999997464
    vertex 68.57368012292838 54.93949796159699 0.1999999999999676
  endloop
endfacet
facet normal 0.0 0.0 -1.0
  outer loop
    vertex 67.12678055234758 63.24138074361802 0.1999999999999773
    vertex 66.40333076705717 59.78226291777594 0.19999999999997323
    vertex 64.95643119647636 61.165910048112764 0.1999999999999773
  endloop
endfacet
facet normal 0.0 0.0 -1.0
  outer loop
    vertex 66.40333076705717 59.78226291777594 0.19999999999997323
    vertex 67.12678055234758 63.24138074361802 0.1999999999999773
    vertex 68.57368012292838 61.8577336132812 0.19999999999997464
  endloop
endfacet
facet normal 0.0 0.0 -1.0
  outer loop
    vertex 59.16883291415312 52.86402726609173 0.1999999999999831
    vertex 59.89228269944352 49.40490944024962 0.1999999999999831
    vertex 57.7219333435723 51.4803801357549 0.1999999999999831
  endloop
endfacet
facet normal 0.0 0.0 -1.0
  outer loop
    vertex 59.89228269944352 49.40490944024962 0.1999999999999831
    vertex 59.16883291415312 52.86402726609173 0.1999999999999831
    vertex 61.33918227002434 50.788556570586465 0.1999999999999831
  endloop
endfacet
facet normal 0.0 0.0 -1.0
  outer loop
    vertex 59.16883291415311 59.782262917775924 0.19999999999998205
    vertex 59.89228269944362 56.32314509193391 0.19999999999998028
    vertex 57.72193334357242 58.3986157874392 0.19999999999998028
  endloop
endfacet
facet normal 0.0 0.0 -1.0
  outer loop
    vertex 59.89228269944362 56.32314509193391 0.19999999999998028
    vertex 59.16883291415311 59.782262917775924 0.19999999999998205
    vertex 61.33918227002433 57.70679222227066 0.19999999999998205
  endloop
endfacet
facet normal 0.0 0.0 -1.0
  outer loop
    vertex 57.72193334357228 61.16591004811278 0.19999999999998028
    vertex 55.806431196476346 56.5668514391233 0.19999999999998028
    vertex 55.806431196476346 62.997674396428565 0.19999999999998028
  endloop
endfacet
facet normal 0.0 0.0 -1.0
  outer loop
    vertex 55.806431196476346 56.5668514391233 0.19999999999998028
    vertex 57.72193334357228 61.16591004811278 0.19999999999998028
    vertex 57.72193334357242 58.3986157874392 0.19999999999998028
  endloop
endfacet
facet normal 0.0 0.0 -1.0
  outer loop
    vertex 57.72193334357242 58.3986157874392 0.19999999999998028
    vertex 57.72193334357228 61.16591004811278 0.19999999999998028
    vertex 59.892282699443506 63.24138074361804 0.19999999999998028
  endloop
endfacet
facet normal 0.0 0.0 -1.0
  outer loop
    vertex 57.72193334357242 58.3986157874392 0.19999999999998028
    vertex 59.892282699443506 63.24138074361804 0.19999999999998028
    vertex 59.16883291415311 59.782262917775924 0.19999999999998205
  endloop
endfacet
facet normal 0.0 0.0 -1.0
  outer loop
    vertex 59.16883291415311 59.782262917775924 0.19999999999998205
    vertex 59.892282699443506 63.24138074361804 0.19999999999998028
    vertex 61.33918227002432 61.8577336132812 0.19999999999998205
  endloop
endfacet
endsolid top plate lemon rx grillage
